<?xml version="1.0" encoding="utf-8"?>
<!-- Generator: Adobe Illustrator 27.7.0, SVG Export Plug-In . SVG Version: 6.00 Build 0)  -->
<svg version="1.1"
	 id="svg1122" xmlns:dc="http://purl.org/dc/elements/1.1/" xmlns:cc="http://creativecommons.org/ns#" xmlns:rdf="http://www.w3.org/1999/02/22-rdf-syntax-ns#" xmlns:inkscape="http://www.inkscape.org/namespaces/inkscape" xmlns:svg="http://www.w3.org/2000/svg" xmlns:sodipodi="http://sodipodi.sourceforge.net/DTD/sodipodi-0.dtd"
	 xmlns="http://www.w3.org/2000/svg" xmlns:xlink="http://www.w3.org/1999/xlink" x="0px" y="0px" viewBox="0 0 2062.9 393.7"
	 style="enable-background:new 0 0 2062.9 393.7;" xml:space="preserve">
<style type="text/css">
	.st0{fill:none;stroke:#FF0000;stroke-width:0.216;stroke-miterlimit:10;}
</style>
<sodipodi:namedview  bordercolor="#000000" borderopacity="0.25" id="namedview1124" inkscape:current-layer="p-1" inkscape:cx="685.04799" inkscape:cy="392.96159" inkscape:deskcolor="#d1d1d1" inkscape:document-units="mm" inkscape:pagecheckerboard="0" inkscape:pageopacity="0.0" inkscape:showpageshadow="2" inkscape:window-height="829" inkscape:window-maximized="0" inkscape:window-width="1309" inkscape:window-x="0" inkscape:window-y="37" inkscape:zoom="0.33209352" pagecolor="#ffffff" showgrid="false">
	</sodipodi:namedview>
<g id="p-1" transform="translate(1.4857608,5.8949776)">
	<path id="path675" class="st0" d="M2018.8,325.3l0-33.7c0-0.2-0.1-0.3-0.3-0.3l-8.7,0c-0.3,0,0,0.3,0,0l0-17.4c0-0.3-0.3,0,0,0
		l8.7,0c0.2,0,0.3-0.1,0.3-0.3l0-18c0-0.2-0.1-0.3-0.3-0.3l-8.7,0c-0.3,0,0,0.3,0,0l0-17.4c0-0.3-0.3,0,0,0l8.7,0
		c0.2,0,0.3-0.1,0.3-0.3l0-18c0-0.2-0.1-0.3-0.3-0.3l-8.7,0c-0.3,0,0,0.3,0,0l0-17.4c0-0.3-0.3,0,0,0l8.7,0c0.2,0,0.3-0.1,0.3-0.3
		l0-18c0-0.2-0.1-0.3-0.3-0.3l-8.7,0c-0.3,0,0,0.3,0,0l0-17.4c0-0.3-0.3,0,0,0l8.7,0c0.2,0,0.3-0.1,0.3-0.3l0-18
		c0-0.2-0.1-0.3-0.3-0.3l-8.7,0c-0.3,0,0,0.3,0,0l0-17.4c0-0.3-0.3,0,0,0l8.7,0c0.2,0,0.3-0.1,0.3-0.3l0-18c0-0.2-0.1-0.3-0.3-0.3
		l-8.7,0c-0.3,0,0,0.3,0,0l0-17.4c0-0.3-0.3,0,0,0l8.7,0c0.2,0,0.3-0.1,0.3-0.3l0-33.7c0-0.2-0.1-0.3-0.3-0.3l-9,0l-33.4,0
		c-0.3,0,0,0.3,0,0l0-8.7c0-0.2-0.1-0.3-0.3-0.3l-18,0c-0.2,0-0.3,0.1-0.3,0.3l0,8.7c0,0.3,0.3,0,0,0l-17.4,0c-0.3,0,0,0.3,0,0
		l0-8.7c0-0.2-0.1-0.3-0.3-0.3l-18,0c-0.2,0-0.3,0.1-0.3,0.3l0,8.7c0,0.3,0.3,0,0,0l-17.4,0c-0.3,0,0,0.3,0,0l0-8.7
		c0-0.2-0.1-0.3-0.3-0.3l-18,0c-0.2,0-0.3,0.1-0.3,0.3l0,8.7c0,0.3,0.3,0,0,0l-17.4,0c-0.3,0,0,0.3,0,0l0-8.7c0-0.2-0.1-0.3-0.3-0.3
		l-18,0c-0.2,0-0.3,0.1-0.3,0.3l0,8.7c0,0.3,0.3,0,0,0l-17.4,0c-0.3,0,0,0.3,0,0l0-8.7c0-0.2-0.1-0.3-0.3-0.3l-18,0
		c-0.2,0-0.3,0.1-0.3,0.3l0,8.7c0,0.3,0.3,0,0,0l-17.4,0c-0.3,0,0,0.3,0,0l0-8.7c0-0.2-0.1-0.3-0.3-0.3l-18,0
		c-0.2,0-0.3,0.1-0.3,0.3l0,8.7c0,0.3,0.3,0,0,0l-33.4,0c-0.2,0-0.3,0.1-0.3,0.3l0,247.5c0-0.2,0.1-0.3,0.3-0.3
		c-5.4,0-10.7,1.6-15.2,4.6c-4.5,3-8,7.3-10,12.2c-2.1,5-2.6,10.5-1.6,15.8c1.1,5.3,3.7,10.2,7.5,14c3.8,3.8,8.7,6.4,14,7.5
		c5.3,1.1,10.8,0.5,15.8-1.6c5-2.1,9.2-5.6,12.2-10c3-4.5,4.6-9.8,4.6-15.2l0-9c0,0,0,0.1,0,0.1c0,0-0.1,0.1-0.1,0.1
		c0,0-0.1,0-0.1,0c-0.1,0-0.1,0-0.1,0c0,0-0.1-0.1-0.1-0.1c0,0,0-0.1,0-0.1c0,0.2,0.1,0.3,0.3,0.3l19.9,0c0.3,0,0-0.3,0,0l0,8.7
		c0,0.2,0.1,0.3,0.3,0.3l18,0c0.2,0,0.3-0.1,0.3-0.3l0-8.7c0-0.3-0.3,0,0,0l17.4,0c0.3,0,0-0.3,0,0l0,8.7c0,0.2,0.1,0.3,0.3,0.3
		l18,0c0.2,0,0.3-0.1,0.3-0.3l0-8.7c0-0.3-0.3,0,0,0l17.4,0c0.3,0,0-0.3,0,0l0,8.7c0,0.2,0.1,0.3,0.3,0.3l18,0
		c0.2,0,0.3-0.1,0.3-0.3l0-8.7c0-0.3-0.3,0,0,0l17.4,0c0.3,0,0-0.3,0,0l0,8.7c0,0.2,0.1,0.3,0.3,0.3l18,0c0.2,0,0.3-0.1,0.3-0.3
		l0-8.7c0-0.3-0.3,0,0,0l17.4,0c0.3,0,0-0.3,0,0l0,8.7c0,0.2,0.1,0.3,0.3,0.3l18,0c0.2,0,0.3-0.1,0.3-0.3l0-8.7c0-0.3-0.3,0,0,0
		l17.4,0c0.3,0,0-0.3,0,0l0,8.7c0,0.2,0.1,0.3,0.3,0.3l18,0c0.2,0,0.3-0.1,0.3-0.3l0-8.7c0-0.3-0.3,0,0,0l20,0l9,0
		C2018.7,325.6,2018.8,325.5,2018.8,325.3L2018.8,325.3z"/>
	<path id="path677" class="st0" d="M1743.8,352c-3.4,0-6.7-1-9.6-2.8c-2.9-1.8-5.1-4.5-6.5-7.5c-1.4-3.1-1.9-6.5-1.4-9.9
		c0.5-3.4,1.9-6.5,4.1-9.1c2.2-2.6,5.1-4.4,8.4-5.4c3.3-1,6.7-1,10,0c3.3,1,6.2,2.8,8.4,5.4c2.2,2.6,3.7,5.7,4.1,9.1
		c0.5,3.4,0,6.8-1.4,9.9c-1.4,3.1-3.7,5.7-6.5,7.5C1750.5,351,1747.2,352,1743.8,352L1743.8,352z"/>
	<path id="path679" class="st0" d="M1730.6,329.8l0-4.2c0-0.3-0.3,0,0,0l12.9,0c0.3,0,0-0.3,0,0l0,8.4c0,0.3,0.3,0,0,0l-12.9,0
		c-0.3,0,0,0.3,0,0L1730.6,329.8z"/>
</g>
<g id="p-2" transform="rotate(-89.998392,73.09731,66.343496)">
	<path id="path682" class="st0" d="M-191.7,1706.1c0,0-0.1,0-0.1,0c0,0-0.1-0.1-0.1-0.1c0,0,0-0.1,0-0.1s0-0.1,0-0.1
		c0,0,0.1-0.1,0.1-0.1c0,0,0.1,0,0.1,0h-9c0.1,0,0.1,0,0.1,0c0,0,0.1,0.1,0.1,0.1c0,0,0,0.1,0,0.1s0,0.1,0,0.1c0,0-0.1,0.1-0.1,0.1
		c0,0-0.1,0-0.1,0c4.8,0,9.6,1.3,13.8,3.7s7.7,5.9,10.1,10.1c2.4,4.2,3.7,9,3.7,13.8c0,0.2,0.1,0.3,0.3,0.3H73.7
		c0.2,0,0.3-0.1,0.3-0.3l0-19.1c0-0.3-0.3,0,0,0h8.7c0.2,0,0.3-0.1,0.3-0.3v-18c0-0.2-0.1-0.3-0.3-0.3H74c-0.3,0,0,0.3,0,0v-19.1v-9
		c0-0.2-0.1-0.3-0.3-0.3H40c-0.2,0-0.3,0.1-0.3,0.3v8.7c0,0.3,0.3,0,0,0H22.3c-0.3,0,0,0.3,0,0v-8.7c0-0.2-0.1-0.3-0.3-0.3H4
		c-0.2,0-0.3,0.1-0.3,0.3l0,8.7c0,0.3,0.3,0,0,0h-17.4c-0.3,0,0,0.3,0,0l0-8.7c0-0.2-0.1-0.3-0.3-0.3h-18c-0.2,0-0.3,0.1-0.3,0.3
		v8.7c0,0.3,0.3,0,0,0h-17.4c-0.3,0,0,0.3,0,0v-8.7c0-0.2-0.1-0.3-0.3-0.3h-18c-0.2,0-0.3,0.1-0.3,0.3v8.7c0,0.3,0.3,0,0,0h-17.4
		c-0.3,0,0,0.3,0,0v-8.7c0-0.2-0.1-0.3-0.3-0.3h-18c-0.2,0-0.3,0.1-0.3,0.3v8.7c0,0.3,0.3,0,0,0h-17.4c-0.3,0,0,0.3,0,0v-8.7
		c0-0.2-0.1-0.3-0.3-0.3h-18c-0.2,0-0.3,0.1-0.3,0.3v8.7c0,0.3,0.3,0,0,0h-17.4c-0.3,0,0,0.3,0,0v-8.7c0-0.2-0.1-0.3-0.3-0.3h-33.7
		c-0.2,0-0.3,0.1-0.3,0.3v9v5.1c0,0.3,0.3,0,0,0h-8.7c-0.2,0-0.3,0.1-0.3,0.3v18c0,0.2,0.1,0.3,0.3,0.3h8.7c0.3,0,0-0.3,0,0v5.1
		C-192,1706-191.9,1706.1-191.7,1706.1L-191.7,1706.1z"/>
</g>
<g id="p-3" transform="rotate(-89.998392,73.09731,66.343496)">
	<path id="path685" class="st0" d="M-191.7,1663.3h33.7c0.2,0,0.3-0.1,0.3-0.3v-8.7c0-0.3-0.3,0,0,0h17.4c0.3,0,0-0.3,0,0v8.7
		c0,0.2,0.1,0.3,0.3,0.3h18c0.2,0,0.3-0.1,0.3-0.3v-8.7c0-0.3-0.3,0,0,0h17.4c0.3,0,0-0.3,0,0v8.7c0,0.2,0.1,0.3,0.3,0.3h18
		c0.2,0,0.3-0.1,0.3-0.3l0-8.7c0-0.3-0.3,0,0,0h17.4c0.3,0,0-0.3,0,0v8.7c0,0.2,0.1,0.3,0.3,0.3h18c0.2,0,0.3-0.1,0.3-0.3v-8.7
		c0-0.3-0.3,0,0,0h17.4c0.3,0,0-0.3,0,0v8.7c0,0.2,0.1,0.3,0.3,0.3h18c0.2,0,0.3-0.1,0.3-0.3l0-8.7c0-0.3-0.3,0,0,0H3.7
		c0.3,0,0-0.3,0,0l0,8.7c0,0.2,0.1,0.3,0.3,0.3h18c0.2,0,0.3-0.1,0.3-0.3v-8.7c0-0.3-0.3,0,0,0h17.4c0.3,0,0-0.3,0,0l0,8.7
		c0,0.2,0.1,0.3,0.3,0.3h33.7c0.2,0,0.3-0.1,0.3-0.3v-9v-20c0-0.3-0.3,0,0,0h8.7c0.2,0,0.3-0.1,0.3-0.3l0-18c0-0.2-0.1-0.3-0.3-0.3
		H74c-0.3,0,0,0.3,0,0l0-17.4c0-0.3-0.3,0,0,0h8.7c0.2,0,0.3-0.1,0.3-0.3v-18c0-0.2-0.1-0.3-0.3-0.3H74c-0.3,0,0,0.3,0,0V1562
		c0-0.3-0.3,0,0,0h8.7c0.2,0,0.3-0.1,0.3-0.3v-18c0-0.2-0.1-0.3-0.3-0.3H74c-0.3,0,0,0.3,0,0V1526c0-0.3-0.3,0,0,0h8.7
		c0.2,0,0.3-0.1,0.3-0.3v-18c0-0.2-0.1-0.3-0.3-0.3H74c-0.3,0,0,0.3,0,0V1490c0-0.3-0.3,0,0,0h8.7c0.2,0,0.3-0.1,0.3-0.3v-18
		c0-0.2-0.1-0.3-0.3-0.3H74c-0.3,0,0,0.3,0,0V1454c0-0.3-0.3,0,0,0h8.7c0.2,0,0.3-0.1,0.3-0.3v-18c0-0.2-0.1-0.3-0.3-0.3H74
		c-0.3,0,0,0.3,0,0v-20c0-0.2-0.1-0.3-0.3-0.3c0.1,0,0.1,0,0.1,0c0,0,0.1,0.1,0.1,0.1c0,0,0,0.1,0,0.1c0,0.1,0,0.1,0,0.1
		c0,0-0.1,0.1-0.1,0.1c0,0-0.1,0-0.1,0h9c5.4,0,10.7-1.6,15.2-4.6c4.5-3,8-7.3,10-12.2c2.1-5,2.6-10.5,1.6-15.8
		c-1.1-5.3-3.7-10.2-7.5-14s-8.7-6.4-14-7.5c-5.3-1.1-10.8-0.5-15.8,1.6c-5,2.1-9.2,5.6-12.2,10c-3,4.5-4.6,9.8-4.6,15.2
		c0-0.2,0.1-0.3,0.3-0.3l-247.5,0c-0.2,0-0.3,0.1-0.3,0.3v33.4c0,0.3,0.3,0,0,0h-8.7c-0.2,0-0.3,0.1-0.3,0.3l0,18
		c0,0.2,0.1,0.3,0.3,0.3h8.7c0.3,0,0-0.3,0,0l0,17.4c0,0.3,0.3,0,0,0h-8.7c-0.2,0-0.3,0.1-0.3,0.3v18c0,0.2,0.1,0.3,0.3,0.3h8.7
		c0.3,0,0-0.3,0,0v17.4c0,0.3,0.3,0,0,0h-8.7c-0.2,0-0.3,0.1-0.3,0.3v18c0,0.2,0.1,0.3,0.3,0.3h8.7c0.3,0,0-0.3,0,0v17.4
		c0,0.3,0.3,0,0,0h-8.7c-0.2,0-0.3,0.1-0.3,0.3v18c0,0.2,0.1,0.3,0.3,0.3h8.7c0.3,0,0-0.3,0,0v17.4c0,0.3,0.3,0,0,0h-8.7
		c-0.2,0-0.3,0.1-0.3,0.3v18c0,0.2,0.1,0.3,0.3,0.3h8.7c0.3,0,0-0.3,0,0v17.4c0,0.3,0.3,0,0,0h-8.7c-0.2,0-0.3,0.1-0.3,0.3v18
		c0,0.2,0.1,0.3,0.3,0.3h8.7c0.3,0,0-0.3,0,0v33.4v9C-192,1663.1-191.9,1663.3-191.7,1663.3L-191.7,1663.3z"/>
	<path id="path687" class="st0" d="M65,1388.2c0-3.4,1-6.7,2.8-9.6c1.8-2.9,4.5-5.1,7.5-6.5c3.1-1.4,6.5-1.9,9.9-1.4
		c3.4,0.5,6.5,1.9,9.1,4.1c2.6,2.2,4.4,5.1,5.4,8.4c1,3.3,1,6.7,0,10c-1,3.3-2.8,6.2-5.4,8.4c-2.6,2.2-5.7,3.7-9.1,4.1
		c-3.4,0.5-6.8,0-9.9-1.4c-3.1-1.4-5.7-3.7-7.5-6.5C66,1395,65,1391.6,65,1388.2L65,1388.2z"/>
	<path id="path689" class="st0" d="M78.3,1375.1h4.2c0.3,0,0-0.3,0,0v12.9c0,0.3,0.3,0,0,0H74c-0.3,0,0,0.3,0,0v-12.9
		c0-0.3-0.3,0,0,0H78.3z"/>
</g>
<g id="p-4" transform="rotate(-89.998392,73.09731,66.343496)">
	<path id="path692" class="st0" d="M-191.7,1383.7H54.9c0.2,0,0.3-0.1,0.3-0.3c0-4.9,1.3-9.6,3.7-13.8c2.4-4.2,5.9-7.7,10.1-10.1
		c4.2-2.4,9-3.7,13.8-3.7c0,0-0.1,0-0.1,0c0,0-0.1-0.1-0.1-0.1c0,0,0-0.1,0-0.1c0-0.1,0-0.1,0-0.1c0,0,0.1-0.1,0.1-0.1
		c0,0,0.1,0,0.1,0h-9c0.1,0,0.1,0,0.1,0c0,0,0.1,0.1,0.1,0.1c0,0,0,0.1,0,0.1s0,0.1,0,0.1c0,0-0.1,0.1-0.1,0.1c0,0-0.1,0-0.1,0
		c0.2,0,0.3-0.1,0.3-0.3v-5.1c0-0.3-0.3,0,0,0h8.7c0.2,0,0.3-0.1,0.3-0.3v-18c0-0.2-0.1-0.3-0.3-0.3H74c-0.3,0,0,0.3,0,0v-5.1v-9
		c0-0.2-0.1-0.3-0.3-0.3H40c-0.2,0-0.3,0.1-0.3,0.3v8.7c0,0.3,0.3,0,0,0H22.3c-0.3,0,0,0.3,0,0v-8.7c0-0.2-0.1-0.3-0.3-0.3H4
		c-0.2,0-0.3,0.1-0.3,0.3l0,8.7c0,0.3,0.3,0,0,0h-17.4c-0.3,0,0,0.3,0,0l0-8.7c0-0.2-0.1-0.3-0.3-0.3h-18c-0.2,0-0.3,0.1-0.3,0.3
		v8.7c0,0.3,0.3,0,0,0h-17.4c-0.3,0,0,0.3,0,0v-8.7c0-0.2-0.1-0.3-0.3-0.3h-18c-0.2,0-0.3,0.1-0.3,0.3v8.7c0,0.3,0.3,0,0,0h-17.4
		c-0.3,0,0,0.3,0,0v-8.7c0-0.2-0.1-0.3-0.3-0.3h-18c-0.2,0-0.3,0.1-0.3,0.3v8.7c0,0.3,0.3,0,0,0h-17.4c-0.3,0,0,0.3,0,0v-8.7
		c0-0.2-0.1-0.3-0.3-0.3h-18c-0.2,0-0.3,0.1-0.3,0.3v8.7c0,0.3,0.3,0,0,0h-17.4c-0.3,0,0,0.3,0,0v-8.7c0-0.2-0.1-0.3-0.3-0.3h-33.7
		c-0.2,0-0.3,0.1-0.3,0.3v9v19.1c0,0.3,0.3,0,0,0h-8.7c-0.2,0-0.3,0.1-0.3,0.3v18c0,0.2,0.1,0.3,0.3,0.3h8.7c0.3,0,0-0.3,0,0v19.1
		C-192,1383.6-191.9,1383.7-191.7,1383.7L-191.7,1383.7z"/>
</g>
<g id="p-5" transform="rotate(-89.998392,73.09731,66.343496)">
	<path id="path695" class="st0" d="M-191.7,1313h33.7c0.2,0,0.3-0.1,0.3-0.3v-8.7c0-0.3-0.3,0,0,0h17.4c0.3,0,0-0.3,0,0v8.7
		c0,0.2,0.1,0.3,0.3,0.3h18c0.2,0,0.3-0.1,0.3-0.3v-8.7c0-0.3-0.3,0,0,0h17.4c0.3,0,0-0.3,0,0v8.7c0,0.2,0.1,0.3,0.3,0.3h18
		c0.2,0,0.3-0.1,0.3-0.3v-8.7c0-0.3-0.3,0,0,0h17.4c0.3,0,0-0.3,0,0v8.7c0,0.2,0.1,0.3,0.3,0.3h18c0.2,0,0.3-0.1,0.3-0.3v-8.7
		c0-0.3-0.3,0,0,0h17.4c0.3,0,0-0.3,0,0v8.7c0,0.2,0.1,0.3,0.3,0.3h18c0.2,0,0.3-0.1,0.3-0.3l0-8.7c0-0.3-0.3,0,0,0H3.7
		c0.3,0,0-0.3,0,0l0,8.7c0,0.2,0.1,0.3,0.3,0.3h18c0.2,0,0.3-0.1,0.3-0.3v-8.7c0-0.3-0.3,0,0,0h17.4c0.3,0,0-0.3,0,0v8.7
		c0,0.2,0.1,0.3,0.3,0.3h33.7h9c0.2,0,0.3-0.1,0.3-0.3v-9l0-33.7c0-0.2-0.1-0.3-0.3-0.3H74c-0.3,0,0,0.3,0,0v-17.4c0-0.3-0.3,0,0,0
		h8.7c0.2,0,0.3-0.1,0.3-0.3v-18c0-0.2-0.1-0.3-0.3-0.3H74c-0.3,0,0,0.3,0,0v-17.4c0-0.3-0.3,0,0,0h8.7c0.2,0,0.3-0.1,0.3-0.3l0-18
		c0-0.2-0.1-0.3-0.3-0.3H74c-0.3,0,0,0.3,0,0l0-17.4c0-0.3-0.3,0,0,0h8.7c0.2,0,0.3-0.1,0.3-0.3v-18c0-0.2-0.1-0.3-0.3-0.3H74
		c-0.3,0,0,0.3,0,0v-17.4c0-0.3-0.3,0,0,0h8.7c0.2,0,0.3-0.1,0.3-0.3l0-18c0-0.2-0.1-0.3-0.3-0.3H74c-0.3,0,0,0.3,0,0l0-17.4
		c0-0.3-0.3,0,0,0h8.7c0.2,0,0.3-0.1,0.3-0.3v-18c0-0.2-0.1-0.3-0.3-0.3H74c-0.3,0,0,0.3,0,0v-17.4c0-0.3-0.3,0,0,0h8.7
		c0.2,0,0.3-0.1,0.3-0.3l0-33.7c0-0.2-0.1-0.3-0.3-0.3h-9h-265.5h-9c-0.2,0-0.3,0.1-0.3,0.3v33.7c0,0.2,0.1,0.3,0.3,0.3h8.7
		c0.3,0,0-0.3,0,0v17.4c0,0.3,0.3,0,0,0h-8.7c-0.2,0-0.3,0.1-0.3,0.3v18c0,0.2,0.1,0.3,0.3,0.3h8.7c0.3,0,0-0.3,0,0v17.4
		c0,0.3,0.3,0,0,0h-8.7c-0.2,0-0.3,0.1-0.3,0.3v18c0,0.2,0.1,0.3,0.3,0.3h8.7c0.3,0,0-0.3,0,0v17.4c0,0.3,0.3,0,0,0h-8.7
		c-0.2,0-0.3,0.1-0.3,0.3v18c0,0.2,0.1,0.3,0.3,0.3h8.7c0.3,0,0-0.3,0,0v17.4c0,0.3,0.3,0,0,0h-8.7c-0.2,0-0.3,0.1-0.3,0.3v18
		c0,0.2,0.1,0.3,0.3,0.3h8.7c0.3,0,0-0.3,0,0v17.4c0,0.3,0.3,0,0,0h-8.7c-0.2,0-0.3,0.1-0.3,0.3v18c0,0.2,0.1,0.3,0.3,0.3h8.7
		c0.3,0,0-0.3,0,0v17.4c0,0.3,0.3,0,0,0h-8.7c-0.2,0-0.3,0.1-0.3,0.3v33.7v9c0,0.2,0.1,0.3,0.3,0.3H-191.7z"/>
</g>
<g id="p-6" transform="rotate(-89.998392,73.09731,66.343496)">
	<path id="path698" class="st0" d="M-191.7,1033.5h33.7c0.2,0,0.3-0.1,0.3-0.3v-8.7c0-0.3-0.3,0,0,0h17.4c0.3,0,0-0.3,0,0v8.7
		c0,0.2,0.1,0.3,0.3,0.3h18c0.2,0,0.3-0.1,0.3-0.3v-8.7c0-0.3-0.3,0,0,0h17.4c0.3,0,0-0.3,0,0v8.7c0,0.2,0.1,0.3,0.3,0.3h18
		c0.2,0,0.3-0.1,0.3-0.3l0-8.7c0-0.3-0.3,0,0,0h17.4c0.3,0,0-0.3,0,0v8.7c0,0.2,0.1,0.3,0.3,0.3h18c0.2,0,0.3-0.1,0.3-0.3v-8.7
		c0-0.3-0.3,0,0,0h17.4c0.3,0,0-0.3,0,0v8.7c0,0.2,0.1,0.3,0.3,0.3h18c0.2,0,0.3-0.1,0.3-0.3l0-8.7c0-0.3-0.3,0,0,0l17.4,0
		c0.3,0,0-0.3,0,0l0,8.7c0,0.2,0.1,0.3,0.3,0.3h18c0.2,0,0.3-0.1,0.3-0.3v-8.7c0-0.3-0.3,0,0,0h17.4c0.3,0,0-0.3,0,0v8.7
		c0,0.2,0.1,0.3,0.3,0.3h33.7h9c0.2,0,0.3-0.1,0.3-0.3v-9v-20.2c0-0.2-0.1-0.3-0.3-0.3H74c-0.3,0,0,0.3,0,0v-17.4c0-0.3-0.3,0,0,0
		h8.7c0.2,0,0.3-0.1,0.3-0.3l0-18c0-0.2-0.1-0.3-0.3-0.3H74c-0.3,0,0,0.3,0,0l0-17.4c0-0.3-0.3,0,0,0h8.7c0.2,0,0.3-0.1,0.3-0.3v-18
		c0-0.2-0.1-0.3-0.3-0.3H74c-0.3,0,0,0.3,0,0v-17.4c0-0.3-0.3,0,0,0h8.7c0.2,0,0.3-0.1,0.3-0.3v-18c0-0.2-0.1-0.3-0.3-0.3H74
		c-0.3,0,0,0.3,0,0v-17.4c0-0.3-0.3,0,0,0h8.7c0.2,0,0.3-0.1,0.3-0.3v-18c0-0.2-0.1-0.3-0.3-0.3H74c-0.3,0,0,0.3,0,0v-17.4
		c0-0.3-0.3,0,0,0h8.7c0.2,0,0.3-0.1,0.3-0.3v-18c0-0.2-0.1-0.3-0.3-0.3H74c-0.3,0,0,0.3,0,0v-17.4c0-0.3-0.3,0,0,0h8.7
		c0.2,0,0.3-0.1,0.3-0.3v-20.2c0-0.2-0.1-0.3-0.3-0.3H74c-0.3,0,0,0.3,0,0v-26.7c0-0.2-0.1-0.3-0.3-0.3l-265.5,0
		c-0.2,0-0.3,0.1-0.3,0.3v26.7c0,0.3,0.3,0,0,0h-8.7c-0.2,0-0.3,0.1-0.3,0.3l0,20.2c0,0.2,0.1,0.3,0.3,0.3h8.7c0.3,0,0-0.3,0,0
		l0,17.4c0,0.3,0.3,0,0,0h-8.7c-0.2,0-0.3,0.1-0.3,0.3v18c0,0.2,0.1,0.3,0.3,0.3h8.7c0.3,0,0-0.3,0,0v17.4c0,0.3,0.3,0,0,0h-8.7
		c-0.2,0-0.3,0.1-0.3,0.3v18c0,0.2,0.1,0.3,0.3,0.3h8.7c0.3,0,0-0.3,0,0v17.4c0,0.3,0.3,0,0,0h-8.7c-0.2,0-0.3,0.1-0.3,0.3v18
		c0,0.2,0.1,0.3,0.3,0.3h8.7c0.3,0,0-0.3,0,0v17.4c0,0.3,0.3,0,0,0h-8.7c-0.2,0-0.3,0.1-0.3,0.3v18c0,0.2,0.1,0.3,0.3,0.3h8.7
		c0.3,0,0-0.3,0,0v17.4c0,0.3,0.3,0,0,0l-8.7,0c-0.2,0-0.3,0.1-0.3,0.3v18c0,0.2,0.1,0.3,0.3,0.3h8.7c0.3,0,0-0.3,0,0v17.4
		c0,0.3,0.3,0,0,0h-8.7c-0.2,0-0.3,0.1-0.3,0.3v20.2v9c0,0.2,0.1,0.3,0.3,0.3H-191.7z"/>
</g>
<g id="p-7" transform="rotate(-89.998392,73.09731,66.343496)">
	<path id="path701" class="st0" d="M-191.7,753.9h33.7c0.2,0,0.3-0.1,0.3-0.3v-8.7c0-0.3-0.3,0,0,0h17.4c0.3,0,0-0.3,0,0v8.7
		c0,0.2,0.1,0.3,0.3,0.3h18c0.2,0,0.3-0.1,0.3-0.3v-8.7c0-0.3-0.3,0,0,0h17.4c0.3,0,0-0.3,0,0v8.7c0,0.2,0.1,0.3,0.3,0.3h18
		c0.2,0,0.3-0.1,0.3-0.3v-8.7c0-0.3-0.3,0,0,0h17.4c0.3,0,0-0.3,0,0v8.7c0,0.2,0.1,0.3,0.3,0.3h18c0.2,0,0.3-0.1,0.3-0.3v-8.7
		c0-0.3-0.3,0,0,0h17.4c0.3,0,0-0.3,0,0v8.7c0,0.2,0.1,0.3,0.3,0.3h18c0.2,0,0.3-0.1,0.3-0.3l0-8.7c0-0.3-0.3,0,0,0H3.7
		c0.3,0,0-0.3,0,0l0,8.7c0,0.2,0.1,0.3,0.3,0.3h18c0.2,0,0.3-0.1,0.3-0.3v-8.7c0-0.3-0.3,0,0,0h17.4c0.3,0,0-0.3,0,0v8.7
		c0,0.2,0.1,0.3,0.3,0.3h33.7h9c0.2,0,0.3-0.1,0.3-0.3v-9l0-19.3c0-0.2-0.1-0.3-0.3-0.3H74c-0.3,0,0,0.3,0,0l0-17.4c0-0.3-0.3,0,0,0
		h8.7c0.2,0,0.3-0.1,0.3-0.3v-19.3c0-0.2-0.1-0.3-0.3-0.3h-9h-265.5h-9c-0.2,0-0.3,0.1-0.3,0.3v19.3c0,0.2,0.1,0.3,0.3,0.3h8.7
		c0.3,0,0-0.3,0,0V725c0,0.3,0.3,0,0,0h-8.7c-0.2,0-0.3,0.1-0.3,0.3v19.3v9c0,0.2,0.1,0.3,0.3,0.3H-191.7z"/>
</g>
<g id="p-8" transform="rotate(-89.998392,73.09731,66.343496)">
	<path id="path704" class="st0" d="M-191.7,683.2h33.7c0.2,0,0.3-0.1,0.3-0.3v-8.7c0-0.3-0.3,0,0,0h17.4c0.3,0,0-0.3,0,0v8.7
		c0,0.2,0.1,0.3,0.3,0.3h18c0.2,0,0.3-0.1,0.3-0.3v-8.7c0-0.3-0.3,0,0,0h17.4c0.3,0,0-0.3,0,0v8.7c0,0.2,0.1,0.3,0.3,0.3h18
		c0.2,0,0.3-0.1,0.3-0.3v-8.7c0-0.3-0.3,0,0,0h17.4c0.3,0,0-0.3,0,0v8.7c0,0.2,0.1,0.3,0.3,0.3h18c0.2,0,0.3-0.1,0.3-0.3v-8.7
		c0-0.3-0.3,0,0,0h17.4c0.3,0,0-0.3,0,0v8.7c0,0.2,0.1,0.3,0.3,0.3h18c0.2,0,0.3-0.1,0.3-0.3l0-8.7c0-0.3-0.3,0,0,0H3.7
		c0.3,0,0-0.3,0,0l0,8.7c0,0.2,0.1,0.3,0.3,0.3h18c0.2,0,0.3-0.1,0.3-0.3l0-8.7c0-0.3-0.3,0,0,0h17.4c0.3,0,0-0.3,0,0v8.7
		c0,0.2,0.1,0.3,0.3,0.3h33.7h9c0.2,0,0.3-0.1,0.3-0.3v-9v-5.4c0-0.2-0.1-0.3-0.3-0.3H74c-0.3,0,0,0.3,0,0v-17.4c0-0.3-0.3,0,0,0
		h8.7c0.2,0,0.3-0.1,0.3-0.3v-5.4c0-0.2-0.1-0.3-0.3-0.3H74c-0.3,0,0,0.3,0,0l0-13c0-0.3-0.3,0,0,0h8.7c0.2,0,0.3-0.1,0.3-0.3v-13.5
		c0-0.2-0.1-0.3-0.3-0.3h-283.5c-0.2,0-0.3,0.1-0.3,0.3v13.5c0,0.2,0.1,0.3,0.3,0.3h8.7c0.3,0,0-0.3,0,0v13c0,0.3,0.3,0,0,0h-8.7
		c-0.2,0-0.3,0.1-0.3,0.3v5.4c0,0.2,0.1,0.3,0.3,0.3h8.7c0.3,0,0-0.3,0,0l0,17.4c0,0.3,0.3,0,0,0h-8.7c-0.2,0-0.3,0.1-0.3,0.3v5.4v9
		c0,0.2,0.1,0.3,0.3,0.3L-191.7,683.2z"/>
</g>
<g id="p-9" transform="rotate(-89.998392,73.09731,66.343496)">
	<path id="path707" class="st0" d="M-191.7,604.3h33.4c0.3,0,0-0.3,0,0v8.7c0,0.2,0.1,0.3,0.3,0.3h18c0.2,0,0.3-0.1,0.3-0.3v-8.7
		c0-0.3-0.3,0,0,0h17.4c0.3,0,0-0.3,0,0v8.7c0,0.2,0.1,0.3,0.3,0.3h18c0.2,0,0.3-0.1,0.3-0.3l0-8.7c0-0.3-0.3,0,0,0h17.4
		c0.3,0,0-0.3,0,0v8.7c0,0.2,0.1,0.3,0.3,0.3h18c0.2,0,0.3-0.1,0.3-0.3v-8.7c0-0.3-0.3,0,0,0h17.4c0.3,0,0-0.3,0,0v8.7
		c0,0.2,0.1,0.3,0.3,0.3h18c0.2,0,0.3-0.1,0.3-0.3l0-8.7c0-0.3-0.3,0,0,0h17.4c0.3,0,0-0.3,0,0l0,8.7c0,0.2,0.1,0.3,0.3,0.3H4
		c0.2,0,0.3-0.1,0.3-0.3l0-8.7c0-0.3-0.3,0,0,0h17.4c0.3,0,0-0.3,0,0l0,8.7c0,0.2,0.1,0.3,0.3,0.3h18c0.2,0,0.3-0.1,0.3-0.3v-8.7
		c0-0.3-0.3,0,0,0h33.4c0.2,0,0.3-0.1,0.3-0.3l0-33.5c0-0.3-0.3,0,0,0h8.7c0.2,0,0.3-0.1,0.3-0.3v-18c0-0.2-0.1-0.3-0.3-0.3H74
		c-0.3,0,0,0.3,0,0v-17.4c0-0.3-0.3,0,0,0h8.7c0.2,0,0.3-0.1,0.3-0.3v-18c0-0.2-0.1-0.3-0.3-0.3H74c-0.3,0,0,0.3,0,0v-17.4
		c0-0.3-0.3,0,0,0l8.7,0c0.2,0,0.3-0.1,0.3-0.3v-18c0-0.2-0.1-0.3-0.3-0.3H74c-0.3,0,0,0.3,0,0v-17.4c0-0.3-0.3,0,0,0h8.7
		c0.2,0,0.3-0.1,0.3-0.3v-18c0-0.2-0.1-0.3-0.3-0.3l-8.7,0c-0.3,0,0,0.3,0,0v-17.4c0-0.3-0.3,0,0,0h8.7c0.2,0,0.3-0.1,0.3-0.3v-18
		c0-0.2-0.1-0.3-0.3-0.3H74c-0.3,0,0,0.3,0,0v-17.4c0-0.3-0.3,0,0,0h8.7c0.2,0,0.3-0.1,0.3-0.3v-18c0-0.2-0.1-0.3-0.3-0.3H74
		c-0.3,0,0,0.3,0,0v-33.4c0-0.2-0.1-0.3-0.3-0.3H40.3c-0.3,0,0,0.3,0,0v-8.7c0-0.2-0.1-0.3-0.3-0.3H22c-0.2,0-0.3,0.1-0.3,0.3l0,8.7
		c0,0.3,0.3,0,0,0H4.3c-0.3,0,0,0.3,0,0l0-8.7c0-0.2-0.1-0.3-0.3-0.3h-18c-0.2,0-0.3,0.1-0.3,0.3l0,8.7c0,0.3,0.3,0,0,0h-17.4
		c-0.3,0,0,0.3,0,0l0-8.7c0-0.2-0.1-0.3-0.3-0.3h-18c-0.2,0-0.3,0.1-0.3,0.3v8.7c0,0.3,0.3,0,0,0h-17.4c-0.3,0,0,0.3,0,0l0-8.7
		c0-0.2-0.1-0.3-0.3-0.3h-18c-0.2,0-0.3,0.1-0.3,0.3v8.7c0,0.3,0.3,0,0,0h-17.4c-0.3,0,0,0.3,0,0v-8.7c0-0.2-0.1-0.3-0.3-0.3l-18,0
		c-0.2,0-0.3,0.1-0.3,0.3v8.7c0,0.3,0.3,0,0,0h-17.4c-0.3,0,0,0.3,0,0v-8.7c0-0.2-0.1-0.3-0.3-0.3h-18c-0.2,0-0.3,0.1-0.3,0.3v8.7
		c0,0.3,0.3,0,0,0h-33.4c-0.2,0-0.3,0.1-0.3,0.3l0,33.4c0,0.3,0.3,0,0,0h-8.7c-0.2,0-0.3,0.1-0.3,0.3v18c0,0.2,0.1,0.3,0.3,0.3h8.7
		c0.3,0,0-0.3,0,0V408c0,0.3,0.3,0,0,0h-8.7c-0.2,0-0.3,0.1-0.3,0.3v18c0,0.2,0.1,0.3,0.3,0.3h8.7c0.3,0,0-0.3,0,0V444
		c0,0.3,0.3,0,0,0h-8.7c-0.2,0-0.3,0.1-0.3,0.3v18c0,0.2,0.1,0.3,0.3,0.3h8.7c0.3,0,0-0.3,0,0V480c0,0.3,0.3,0,0,0h-8.7
		c-0.2,0-0.3,0.1-0.3,0.3v18c0,0.2,0.1,0.3,0.3,0.3h8.7c0.3,0,0-0.3,0,0l0,17.4c0,0.3,0.3,0,0,0h-8.7c-0.2,0-0.3,0.1-0.3,0.3v18
		c0,0.2,0.1,0.3,0.3,0.3l8.7,0c0.3,0,0-0.3,0,0V552c0,0.3,0.3,0,0,0h-8.7c-0.2,0-0.3,0.1-0.3,0.3v18c0,0.2,0.1,0.3,0.3,0.3h8.7
		c0.3,0,0-0.3,0,0V604C-192,604.2-191.9,604.3-191.7,604.3L-191.7,604.3z"/>
</g>
<g id="p-10" transform="rotate(-89.998392,73.09731,66.343496)">
	<path id="path710" class="st0" d="M-191.7,315.8l33.4,0c0.3,0,0-0.3,0,0v8.7c0,0.2,0.1,0.3,0.3,0.3h18c0.2,0,0.3-0.1,0.3-0.3v-8.7
		c0-0.3-0.3,0,0,0h17.4c0.3,0,0-0.3,0,0v8.7c0,0.2,0.1,0.3,0.3,0.3h18c0.2,0,0.3-0.1,0.3-0.3v-8.7c0-0.3-0.3,0,0,0h17.4
		c0.3,0,0-0.3,0,0v8.7c0,0.2,0.1,0.3,0.3,0.3h18c0.2,0,0.3-0.1,0.3-0.3v-8.7c0-0.3-0.3,0,0,0h17.4c0.3,0,0-0.3,0,0v8.7
		c0,0.2,0.1,0.3,0.3,0.3l18,0c0.2,0,0.3-0.1,0.3-0.3v-8.7c0-0.3-0.3,0,0,0h17.4c0.3,0,0-0.3,0,0l0,8.7c0,0.2,0.1,0.3,0.3,0.3H4
		c0.2,0,0.3-0.1,0.3-0.3l0-8.7c0-0.3-0.3,0,0,0h17.4c0.3,0,0-0.3,0,0v8.7c0,0.2,0.1,0.3,0.3,0.3h18c0.2,0,0.3-0.1,0.3-0.3v-8.7
		c0-0.3-0.3,0,0,0h33.4c0.2,0,0.3-0.1,0.3-0.3V282c0-0.3-0.3,0,0,0h8.7c0.2,0,0.3-0.1,0.3-0.3l0-18c0-0.2-0.1-0.3-0.3-0.3H74
		c-0.3,0,0,0.3,0,0l0-17.4c0-0.3-0.3,0,0,0h8.7c0.2,0,0.3-0.1,0.3-0.3v-18c0-0.2-0.1-0.3-0.3-0.3H74c-0.3,0,0,0.3,0,0V210
		c0-0.3-0.3,0,0,0h8.7c0.2,0,0.3-0.1,0.3-0.3l0-18c0-0.2-0.1-0.3-0.3-0.3H74c-0.3,0,0,0.3,0,0l0-17.4c0-0.3-0.3,0,0,0h8.7
		c0.2,0,0.3-0.1,0.3-0.3v-18c0-0.2-0.1-0.3-0.3-0.3H74c-0.3,0,0,0.3,0,0V138c0-0.3-0.3,0,0,0h8.7c0.2,0,0.3-0.1,0.3-0.3v-18
		c0-0.2-0.1-0.3-0.3-0.3H74c-0.3,0,0,0.3,0,0V102c0-0.3-0.3,0,0,0h8.7c0.2,0,0.3-0.1,0.3-0.3v-18c0-0.2-0.1-0.3-0.3-0.3H74
		c-0.3,0,0,0.3,0,0V50c0-0.2-0.1-0.3-0.3-0.3l-33.4,0c-0.3,0,0,0.3,0,0V41c0-0.2-0.1-0.3-0.3-0.3l-18,0c-0.2,0-0.3,0.1-0.3,0.3v8.7
		c0,0.3,0.3,0,0,0H4.3c-0.3,0,0,0.3,0,0l0-8.7c0-0.2-0.1-0.3-0.3-0.3h-18c-0.2,0-0.3,0.1-0.3,0.3l0,8.7c0,0.3,0.3,0,0,0l-17.4,0
		c-0.3,0,0,0.3,0,0V41c0-0.2-0.1-0.3-0.3-0.3h-18c-0.2,0-0.3,0.1-0.3,0.3v8.7c0,0.3,0.3,0,0,0l-17.4,0c-0.3,0,0,0.3,0,0V41
		c0-0.2-0.1-0.3-0.3-0.3h-18c-0.2,0-0.3,0.1-0.3,0.3l0,8.7c0,0.3,0.3,0,0,0l-17.4,0c-0.3,0,0,0.3,0,0V41c0-0.2-0.1-0.3-0.3-0.3h-18
		c-0.2,0-0.3,0.1-0.3,0.3v8.7c0,0.3,0.3,0,0,0l-17.4,0c-0.3,0,0,0.3,0,0l0-8.7c0-0.2-0.1-0.3-0.3-0.3h-18c-0.2,0-0.3,0.1-0.3,0.3
		v8.7c0,0.3,0.3,0,0,0l-33.4,0c-0.2,0-0.3,0.1-0.3,0.3v33.4c0,0.3,0.3,0,0,0h-8.7c-0.2,0-0.3,0.1-0.3,0.3v18c0,0.2,0.1,0.3,0.3,0.3
		h8.7c0.3,0,0-0.3,0,0v17.4c0,0.3,0.3,0,0,0h-8.7c-0.2,0-0.3,0.1-0.3,0.3v18c0,0.2,0.1,0.3,0.3,0.3h8.7c0.3,0,0-0.3,0,0v17.4
		c0,0.3,0.3,0,0,0h-8.7c-0.2,0-0.3,0.1-0.3,0.3l0,18c0,0.2,0.1,0.3,0.3,0.3h8.7c0.3,0,0-0.3,0,0l0,17.4c0,0.3,0.3,0,0,0h-8.7
		c-0.2,0-0.3,0.1-0.3,0.3v18c0,0.2,0.1,0.3,0.3,0.3h8.7c0.3,0,0-0.3,0,0v17.4c0,0.3,0.3,0,0,0h-8.7c-0.2,0-0.3,0.1-0.3,0.3v18
		c0,0.2,0.1,0.3,0.3,0.3h8.7c0.3,0,0-0.3,0,0v17.4c0,0.3,0.3,0,0,0h-8.7c-0.2,0-0.3,0.1-0.3,0.3v18c0,0.2,0.1,0.3,0.3,0.3h8.7
		c0.3,0,0-0.3,0,0v33.4C-192,315.6-191.9,315.8-191.7,315.8L-191.7,315.8z"/>
</g>
<g id="g50" transform="matrix(2.3808024e-6,-0.08466667,0.08466667,2.3808024e-6,22.282211,378.86263)">
	<line id="polyline20-9" vector-effect="none" class="st0" x1="1388" y1="1650.4" x2="2055.2" y2="1650.4"/>
	<line id="polyline44-3" vector-effect="none" class="st0" x1="2054.5" y1="1165.8" x2="2054.5" y2="1644.1"/>
	<line id="polyline46-7" vector-effect="none" class="st0" x1="1374.6" y1="1169.4" x2="2041.8" y2="1169.4"/>
	<line id="polyline48-0" vector-effect="none" class="st0" x1="1376.9" y1="1172.4" x2="1376.9" y2="1650.7"/>
	
		<polyline id="polyline28-2" vector-effect="none" inkscape:transform-center-x="-576.23523" inkscape:transform-center-y="276.35783" class="st0" points="
		1198.9,901.6 1198.9,900.2 1198.8,898.8 1198.7,897.4 1198.6,896 1198.4,894.6 1198.2,893.3 1198,891.9 1197.7,890.5 1197.4,889.1 
		1197,887.8 1196.6,886.4 1196.2,885.1 1195.8,883.8 1195.2,882.4 1194.7,881.1 1194.2,879.9 1193.5,878.6 1192.9,877.3 
		1192.2,876.1 1191.5,874.9 1190.8,873.7 1190.1,872.5 1189.2,871.4 1188.4,870.2 1187.6,869.1 1186.7,868 1185.7,867 1184.8,865.9 
		1183.8,864.9 1182.8,863.9 1181.8,863 1180.8,862 1179.7,861.1 1178.6,860.3 1177.5,859.4 1176.3,858.6 1175.1,857.8 1174,857.1 
		1172.8,856.4 1171.5,855.7 1170.3,855 1169,854.4 1167.7,853.8 1166.5,853.3 1165.1,852.7 1163.8,852.3 1162.5,851.8 1161.1,851.4 
		1159.8,851 1158.4,850.7 1157.1,850.4 1155.7,850.1 1154.3,849.9 1152.9,849.7 1151.5,849.6 1150.1,849.5 1148.7,849.4 
		1147.3,849.3 1145.9,849.3 1144.5,849.4 1143.1,849.5 1141.7,849.6 1140.3,849.7 1138.9,849.9 1137.5,850.1 1136.1,850.4 
		1134.8,850.7 1133.4,851 1132.1,851.4 1130.7,851.8 1129.4,852.3 1128.1,852.7 1126.8,853.3 1125.5,853.8 1124.2,854.4 1122.9,855 
		1121.7,855.7 1120.5,856.4 1119.2,857.1 1118.1,857.8 1116.9,858.6 1115.8,859.4 1114.6,860.3 1113.5,861.1 1112.4,862 1111.4,863 
		1110.4,863.9 1109.4,864.9 1108.4,865.9 1107.5,867 1106.5,868 1105.6,869.1 1104.8,870.2 1104,871.4 1103.2,872.5 1102.4,873.7 
		1101.7,874.9 1101,876.1 1100.3,877.3 1099.7,878.6 1099.1,879.9 1098.5,881.1 1098,882.4 1097.4,883.8 1097,885.1 1096.6,886.4 
		1096.2,887.8 1095.8,889.1 1095.5,890.5 1095.2,891.9 1095,893.3 1094.8,894.6 1094.6,896 1094.5,897.4 1094.4,898.8 1094.3,900.2 
		1094.3,901.6 1094.3,903 1094.4,904.5 1094.5,905.9 1094.6,907.2 1094.8,908.6 1095,910 1095.2,911.4 1095.5,912.8 1095.8,914.2 
		1096.2,915.5 1096.6,916.9 1097,918.2 1097.4,919.5 1098,920.8 1098.5,922.1 1099.1,923.4 1099.7,924.7 1100.3,925.9 1101,927.2 
		1101.7,928.4 1102.4,929.6 1103.2,930.8 1104,931.9 1104.8,933.1 1105.6,934.2 1106.5,935.3 1107.5,936.3 1108.4,937.4 
		1109.4,938.4 1110.4,939.4 1111.4,940.3 1112.4,941.3 1113.5,942.2 1114.6,943 1115.8,943.9 1116.9,944.7 1118.1,945.5 
		1119.2,946.2 1120.5,946.9 1121.7,947.6 1122.9,948.3 1124.2,948.9 1125.5,949.5 1126.8,950 1128.1,950.5 1129.4,951 1130.7,951.5 
		1132.1,951.9 1133.4,952.2 1134.8,952.6 1136.1,952.9 1137.5,953.1 1138.9,953.4 1140.3,953.6 1141.7,953.7 1143.1,953.8 
		1144.5,953.9 1145.9,953.9 1147.3,953.9 1148.7,953.9 1150.1,953.8 1151.5,953.7 1152.9,953.6 1154.3,953.4 1155.7,953.1 
		1157.1,952.9 1158.4,952.6 1159.8,952.2 1161.1,951.9 1162.5,951.5 1163.8,951 1165.1,950.5 1166.5,950 1167.7,949.5 1169,948.9 
		1170.3,948.3 1171.5,947.6 1172.8,946.9 1174,946.2 1175.1,945.5 1176.3,944.7 1177.5,943.9 1178.6,943 1179.7,942.2 1180.8,941.3 
		1181.8,940.3 1182.8,939.4 1183.8,938.4 1184.8,937.4 1185.7,936.3 1186.7,935.3 1187.6,934.2 1188.4,933.1 1189.2,931.9 
		1190.1,930.8 1190.8,929.6 1191.5,928.4 1192.2,927.2 1192.9,925.9 1193.5,924.7 1194.2,923.4 1194.7,922.1 1195.2,920.8 
		1195.8,919.5 1196.2,918.2 1196.6,916.9 1197,915.5 1197.4,914.2 1197.7,912.8 1198,911.4 1198.2,910 1198.4,908.6 1198.6,907.2 
		1198.7,905.9 1198.8,904.5 1198.9,903 1198.9,901.6 	">
	</polyline>
	
		<polyline id="polyline28-7" vector-effect="none" inkscape:transform-center-x="-505.67578" inkscape:transform-center-y="176.39862" class="st0" points="
		3226.5,3063.1 3226.5,3061.7 3226.4,3060.3 3226.3,3058.9 3226.2,3057.5 3226,3056.1 3225.8,3054.7 3225.6,3053.3 3225.3,3052 
		3225,3050.6 3224.6,3049.2 3224.2,3047.9 3223.8,3046.5 3223.3,3045.2 3222.8,3043.9 3222.3,3042.6 3221.7,3041.3 3221.1,3040.1 
		3220.5,3038.8 3219.8,3037.6 3219.1,3036.4 3218.4,3035.2 3217.6,3034 3216.8,3032.8 3216,3031.7 3215.1,3030.6 3214.3,3029.5 
		3213.3,3028.4 3212.4,3027.4 3211.4,3026.4 3210.4,3025.4 3209.4,3024.4 3208.3,3023.5 3207.3,3022.6 3206.2,3021.7 3205,3020.9 
		3203.9,3020.1 3202.7,3019.3 3201.5,3018.5 3200.3,3017.8 3199.1,3017.1 3197.9,3016.5 3196.6,3015.9 3195.3,3015.3 3194.1,3014.7 
		3192.7,3014.2 3191.4,3013.7 3190.1,3013.3 3188.7,3012.9 3187.4,3012.5 3186,3012.2 3184.6,3011.9 3183.3,3011.6 3181.9,3011.4 
		3180.5,3011.2 3179.1,3011 3177.7,3010.9 3176.3,3010.8 3174.9,3010.8 3173.5,3010.8 3172.1,3010.8 3170.7,3010.9 3169.3,3011 
		3167.9,3011.2 3166.5,3011.4 3165.1,3011.6 3163.7,3011.9 3162.4,3012.2 3161,3012.5 3159.6,3012.9 3158.3,3013.3 3156.9,3013.7 
		3155.6,3014.2 3154.3,3014.7 3153,3015.3 3151.8,3015.9 3150.5,3016.5 3149.3,3017.1 3148,3017.8 3146.8,3018.5 3145.6,3019.3 
		3144.5,3020.1 3143.3,3020.9 3142.2,3021.7 3141.1,3022.6 3140,3023.5 3139,3024.4 3138,3025.4 3137,3026.4 3136,3027.4 
		3135,3028.4 3134.1,3029.5 3133.2,3030.6 3132.4,3031.7 3131.5,3032.8 3130.8,3034 3130,3035.2 3129.3,3036.4 3128.5,3037.6 
		3127.9,3038.8 3127.2,3040.1 3126.6,3041.3 3126.1,3042.6 3125.5,3043.9 3125,3045.2 3124.6,3046.5 3124.1,3047.9 3123.8,3049.2 
		3123.4,3050.6 3123.1,3052 3122.8,3053.3 3122.6,3054.7 3122.4,3056.1 3122.2,3057.5 3122.1,3058.9 3122,3060.3 3121.9,3061.7 
		3121.9,3063.1 3121.9,3064.5 3122,3065.9 3122.1,3067.3 3122.2,3068.7 3122.4,3070.1 3122.6,3071.5 3122.8,3072.9 3123.1,3074.3 
		3123.4,3075.6 3123.8,3077 3124.1,3078.3 3124.6,3079.7 3125,3081 3125.5,3082.3 3126.1,3083.6 3126.6,3084.9 3127.2,3086.2 
		3127.9,3087.4 3128.5,3088.6 3129.3,3089.9 3130,3091.1 3130.8,3092.2 3131.5,3093.4 3132.4,3094.5 3133.2,3095.6 3134.1,3096.7 
		3135,3097.8 3136,3098.8 3137,3099.8 3138,3100.8 3139,3101.8 3140,3102.7 3141.1,3103.6 3142.2,3104.5 3143.3,3105.3 
		3144.5,3106.1 3145.6,3106.9 3146.8,3107.7 3148,3108.4 3149.3,3109.1 3150.5,3109.7 3151.8,3110.4 3153,3110.9 3154.3,3111.5 
		3155.6,3112 3156.9,3112.5 3158.3,3112.9 3159.6,3113.3 3161,3113.7 3162.4,3114.1 3163.7,3114.3 3165.1,3114.6 3166.5,3114.8 
		3167.9,3115 3169.3,3115.2 3170.7,3115.3 3172.1,3115.4 3173.5,3115.4 3174.9,3115.4 3176.3,3115.4 3177.7,3115.3 3179.1,3115.2 
		3180.5,3115 3181.9,3114.8 3183.3,3114.6 3184.6,3114.3 3186,3114.1 3187.4,3113.7 3188.7,3113.3 3190.1,3112.9 3191.4,3112.5 
		3192.7,3112 3194.1,3111.5 3195.3,3110.9 3196.6,3110.4 3197.9,3109.7 3199.1,3109.1 3200.3,3108.4 3201.5,3107.7 3202.7,3106.9 
		3203.9,3106.1 3205,3105.3 3206.2,3104.5 3207.3,3103.6 3208.3,3102.7 3209.4,3101.8 3210.4,3100.8 3211.4,3099.8 3212.4,3098.8 
		3213.3,3097.8 3214.3,3096.7 3215.1,3095.6 3216,3094.5 3216.8,3093.4 3217.6,3092.2 3218.4,3091.1 3219.1,3089.9 3219.8,3088.6 
		3220.5,3087.4 3221.1,3086.2 3221.7,3084.9 3222.3,3083.6 3222.8,3082.3 3223.3,3081 3223.8,3079.7 3224.2,3078.3 3224.6,3077 
		3225,3075.6 3225.3,3074.3 3225.6,3072.9 3225.8,3071.5 3226,3070.1 3226.2,3068.7 3226.3,3067.3 3226.4,3065.9 3226.5,3064.5 
		3226.5,3063.1 	">
	</polyline>
</g>
</svg>
