<?xml version="1.0" encoding="UTF-8" standalone="no"?>
<svg
   height="138.88mm"
   viewBox="0 0 727.75998 138.88"
   width="727.76001mm"
   version="1.1"
   id="svg1122"
   sodipodi:docname="originalbox copy-finishedsideways.svg"
   inkscape:version="1.2.1 (9c6d41e, 2022-07-14)"
   xmlns:inkscape="http://www.inkscape.org/namespaces/inkscape"
   xmlns:sodipodi="http://sodipodi.sourceforge.net/DTD/sodipodi-0.dtd"
   xmlns="http://www.w3.org/2000/svg"
   xmlns:svg="http://www.w3.org/2000/svg"
   xmlns:rdf="http://www.w3.org/1999/02/22-rdf-syntax-ns#"
   xmlns:cc="http://creativecommons.org/ns#"
   xmlns:dc="http://purl.org/dc/elements/1.1/">
  <defs
     id="defs1126" />
  <sodipodi:namedview
     id="namedview1124"
     pagecolor="#ffffff"
     bordercolor="#000000"
     borderopacity="0.25"
     inkscape:showpageshadow="2"
     inkscape:pageopacity="0.0"
     inkscape:pagecheckerboard="0"
     inkscape:deskcolor="#d1d1d1"
     inkscape:document-units="mm"
     showgrid="false"
     inkscape:zoom="0.33209352"
     inkscape:cx="685.04799"
     inkscape:cy="392.96159"
     inkscape:window-width="1309"
     inkscape:window-height="829"
     inkscape:window-x="0"
     inkscape:window-y="37"
     inkscape:window-maximized="0"
     inkscape:current-layer="p-1" />
  <!--
IntegratedHingeBox - Box with lid and integraded hinge

Created with Boxes.py (https://boxes.hackerspace-bamberg.de/)
Creation date: 2024-12-04 23:10:44
Command line (remove spaces between dashes): boxes IntegratedHingeBox - -thickness=3.175
Url: https://boxes.hackerspace-bamberg.de/IntegratedHingeBox?FingerJoint_style=rectangular&FingerJoint_surroundingspaces=2.0&FingerJoint_bottom_lip=0.0&FingerJoint_edge_width=1.0&FingerJoint_extra_length=0.0&FingerJoint_finger=2.0&FingerJoint_play=0.0&FingerJoint_space=2.0&FingerJoint_width=1.0&ChestHinge_finger_joints_on_box=0&ChestHinge_finger_joints_on_lid=0&ChestHinge_hinge_strength=1.0&ChestHinge_pin_height=2.0&ChestHinge_play=0.1&x=100.0&y=100.0&h=100.0&outside=0&outside=1&lidheight=20.0&thickness=3.175&format=svg&tabs=0.0&qr_code=0&debug=0&labels=0&labels=1&reference=100.0&inner_corners=loop&burn=0.1&language=en&render=2
Url short: https://boxes.hackerspace-bamberg.de/IntegratedHingeBox?thickness=3.175
SettingsUrl: https://boxes.hackerspace-bamberg.de/IntegratedHingeBox?FingerJoint_style=rectangular&FingerJoint_surroundingspaces=2.0&FingerJoint_bottom_lip=0.0&FingerJoint_edge_width=1.0&FingerJoint_extra_length=0.0&FingerJoint_finger=2.0&FingerJoint_play=0.0&FingerJoint_space=2.0&FingerJoint_width=1.0&ChestHinge_finger_joints_on_box=0&ChestHinge_finger_joints_on_lid=0&ChestHinge_hinge_strength=1.0&ChestHinge_pin_height=2.0&ChestHinge_play=0.1&x=100.0&y=100.0&h=100.0&outside=0&outside=1&lidheight=20.0&thickness=3.175&format=svg&tabs=0.0&qr_code=0&debug=0&labels=0&labels=1&reference=100.0&inner_corners=loop&burn=0.1&language=en&render=2
SettingsUrl short: https://boxes.hackerspace-bamberg.de/IntegratedHingeBox?thickness=3.175
-->
  <title
     id="title1075">IntegratedHingeBox</title>
  <metadata
     id="metadata1077">
    <rdf:RDF>
      <cc:Work>
        <dc:title>IntegratedHingeBox</dc:title>
        <dc:date>2024-12-04 23:10:44</dc:date>
        <dc:source>https://boxes.hackerspace-bamberg.de/IntegratedHingeBox?FingerJoint_style=rectangular&amp;FingerJoint_surroundingspaces=2.0&amp;FingerJoint_bottom_lip=0.0&amp;FingerJoint_edge_width=1.0&amp;FingerJoint_extra_length=0.0&amp;FingerJoint_finger=2.0&amp;FingerJoint_play=0.0&amp;FingerJoint_space=2.0&amp;FingerJoint_width=1.0&amp;ChestHinge_finger_joints_on_box=0&amp;ChestHinge_finger_joints_on_lid=0&amp;ChestHinge_hinge_strength=1.0&amp;ChestHinge_pin_height=2.0&amp;ChestHinge_play=0.1&amp;x=100.0&amp;y=100.0&amp;h=100.0&amp;outside=0&amp;outside=1&amp;lidheight=20.0&amp;thickness=3.175&amp;format=svg&amp;tabs=0.0&amp;qr_code=0&amp;debug=0&amp;labels=0&amp;labels=1&amp;reference=100.0&amp;inner_corners=loop&amp;burn=0.1&amp;language=en&amp;render=2</dc:source>
        <dc:source>https://boxes.hackerspace-bamberg.de/IntegratedHingeBox?thickness=3.175</dc:source>
        <dc:description>Box with lid and integraded hinge

Created with Boxes.py (https://boxes.hackerspace-bamberg.de/)
Command line: boxes IntegratedHingeBox --FingerJoint_style=rectangular --FingerJoint_surroundingspaces=2.0 --FingerJoint_bottom_lip=0.0 --FingerJoint_edge_width=1.0 --FingerJoint_extra_length=0.0 --FingerJoint_finger=2.0 --FingerJoint_play=0.0 --FingerJoint_space=2.0 --FingerJoint_width=1.0 --ChestHinge_finger_joints_on_box=0 --ChestHinge_finger_joints_on_lid=0 --ChestHinge_hinge_strength=1.0 --ChestHinge_pin_height=2.0 --ChestHinge_play=0.1 --x=100.0 --y=100.0 --h=100.0 --outside=0 --outside=1 --lidheight=20.0 --thickness=3.175 --format=svg --tabs=0.0 --qr_code=0 --debug=0 --labels=0 --labels=1 --reference=100.0 --inner_corners=loop --burn=0.1
Command line short: boxes IntegratedHingeBox --thickness=3.175
Url: https://boxes.hackerspace-bamberg.de/IntegratedHingeBox?FingerJoint_style=rectangular&amp;FingerJoint_surroundingspaces=2.0&amp;FingerJoint_bottom_lip=0.0&amp;FingerJoint_edge_width=1.0&amp;FingerJoint_extra_length=0.0&amp;FingerJoint_finger=2.0&amp;FingerJoint_play=0.0&amp;FingerJoint_space=2.0&amp;FingerJoint_width=1.0&amp;ChestHinge_finger_joints_on_box=0&amp;ChestHinge_finger_joints_on_lid=0&amp;ChestHinge_hinge_strength=1.0&amp;ChestHinge_pin_height=2.0&amp;ChestHinge_play=0.1&amp;x=100.0&amp;y=100.0&amp;h=100.0&amp;outside=0&amp;outside=1&amp;lidheight=20.0&amp;thickness=3.175&amp;format=svg&amp;tabs=0.0&amp;qr_code=0&amp;debug=0&amp;labels=0&amp;labels=1&amp;reference=100.0&amp;inner_corners=loop&amp;burn=0.1&amp;language=en&amp;render=2
Url short: https://boxes.hackerspace-bamberg.de/IntegratedHingeBox?thickness=3.175
SettingsUrl: https://boxes.hackerspace-bamberg.de/IntegratedHingeBox?FingerJoint_style=rectangular&amp;FingerJoint_surroundingspaces=2.0&amp;FingerJoint_bottom_lip=0.0&amp;FingerJoint_edge_width=1.0&amp;FingerJoint_extra_length=0.0&amp;FingerJoint_finger=2.0&amp;FingerJoint_play=0.0&amp;FingerJoint_space=2.0&amp;FingerJoint_width=1.0&amp;ChestHinge_finger_joints_on_box=0&amp;ChestHinge_finger_joints_on_lid=0&amp;ChestHinge_hinge_strength=1.0&amp;ChestHinge_pin_height=2.0&amp;ChestHinge_play=0.1&amp;x=100.0&amp;y=100.0&amp;h=100.0&amp;outside=0&amp;outside=1&amp;lidheight=20.0&amp;thickness=3.175&amp;format=svg&amp;tabs=0.0&amp;qr_code=0&amp;debug=0&amp;labels=0&amp;labels=1&amp;reference=100.0&amp;inner_corners=loop&amp;burn=0.1&amp;language=en&amp;render=2
SettingsUrl short: https://boxes.hackerspace-bamberg.de/IntegratedHingeBox?thickness=3.175
</dc:description>
      </cc:Work>
    </rdf:RDF>
  </metadata>
  <g
     id="p-1"
     style="fill:none;stroke-linecap:round;stroke-linejoin:round"
     transform="translate(1.4857608,5.8949776)">
    <path
       d="m 711.23663,110.94877 3.8e-4,-11.899987 c -2.1e-4,-0.055 -0.045,-0.09999 -0.1,-0.100032 l -3.07499,-1.29e-4 c -0.10005,-2.71e-4 -2.8e-4,0.0999 0,0 l 1.6e-4,-6.14999 c 2.7e-4,-0.100039 -0.0999,-2.7e-4 0,0 l 3.07498,1e-4 c 0.055,-1.93e-4 0.1,-0.04497 0.10005,-0.09999 l 1.8e-4,-6.349996 c -2e-4,-0.055 -0.045,-0.09999 -0.1,-0.100033 l -3.07499,-9.9e-5 c -0.0999,-2.7e-4 -2.8e-4,0.0999 0,0 l 1.6e-4,-6.15 c 2.7e-4,-0.100041 -0.10005,-2.82e-4 0,0 l 3.07498,9.9e-5 c 0.055,-1.93e-4 0.1,-0.04497 0.10004,-0.1 l 1.8e-4,-6.349995 c -2.1e-4,-0.055 -0.045,-0.09999 -0.1,-0.100033 l -3.075,-1e-4 c -0.0999,-2.7e-4 -2.8e-4,0.0999 0,0 l 1.6e-4,-6.150001 c 2.7e-4,-0.0999 -0.1,-2.71e-4 0,0 l 3.07499,9.9e-5 c 0.055,-1.92e-4 0.1,-0.04497 0.10004,-0.1 l 1.8e-4,-6.349996 c -2.1e-4,-0.055 -0.045,-0.09998 -0.1,-0.100032 l -3.07501,-9.9e-5 c -0.0999,-2.71e-4 -2.7e-4,0.0999 0,0 l 1.6e-4,-6.150001 c 2.7e-4,-0.0999 -0.10004,-2.81e-4 0,0 l 3.075,1e-4 c 0.055,-1.93e-4 0.1,-0.04497 0.10003,-0.1 l 1.8e-4,-6.349995 c -2.1e-4,-0.055 -0.045,-0.09999 -0.1,-0.100034 l -3.075,-9.9e-5 c -0.10005,-2.72e-4 -2.8e-4,0.10005 0,0 l 1.6e-4,-6.150001 c 2.7e-4,-0.0999 -0.0999,-2.7e-4 0,0 l 3.07501,9.9e-5 c 0.055,-1.93e-4 0.1,-0.04497 0.10003,-0.1 l 1.8e-4,-6.349996 c -2.1e-4,-0.055 -0.045,-0.09999 -0.1,-0.100032 l -3.075,-10e-5 c -0.1,-2.71e-4 -2.8e-4,0.100051 0,0 l 1.6e-4,-6.15 c 2.7e-4,-0.0999 -0.0999,-2.7e-4 0,0 l 3.07501,9.9e-5 c 0.055,-1.93e-4 0.1,-0.04497 0.10003,-0.1 l 3.7e-4,-11.899984 c -1.9e-4,-0.055 -0.045,-0.09999 -0.1,-0.100033 l -3.175,-1.3e-4 -11.8,-3.44e-4 c -0.0999,-2.7e-4 -2.7e-4,0.100002 0,0 l 1.3e-4,-3.075001 c -2e-4,-0.055 -0.045,-0.09999 -0.1,-0.100033 l -6.35,-1.6e-4 c -0.055,2.03e-4 -0.1,0.04497 -0.10003,0.1 l -1.3e-4,3.075 c -2.7e-4,0.0999 0.0999,2.71e-4 0,0 l -6.15001,-1.99e-4 c -0.10003,-2.7e-4 -2.7e-4,0.0999 0,0 l 1.3e-4,-3.074989 c -2e-4,-0.055 -0.045,-0.09999 -0.1,-0.100034 l -6.35,-1.6e-4 c -0.055,2.03e-4 -0.1,0.04497 -0.10004,0.1 l -1.3e-4,3.075001 c -2.7e-4,0.10004 0.0999,2.7e-4 0,0 l -6.15,-1.99e-4 c -0.10004,-2.71e-4 -2.7e-4,0.100002 0,0 l 1.3e-4,-3.074991 c -1.9e-4,-0.055 -0.0451,-0.09999 -0.1,-0.100033 l -6.35001,-1.6e-4 c -0.055,2.03e-4 -0.1,0.04497 -0.10003,0.1 l -1.3e-4,3.075011 c -2.7e-4,0.0999 0.0999,2.7e-4 0,0 l -6.15,-1.99e-4 c -0.0999,-2.7e-4 -2.7e-4,0.10005 0,0 l 1.3e-4,-3.074991 c -1.9e-4,-0.055 -0.045,-0.09999 -0.1,-0.100033 l -6.35001,-1.6e-4 c -0.055,2.03e-4 -0.1,0.04497 -0.10003,0.09999 l -1.3e-4,3.075011 c -2.7e-4,0.0999 0.1,2.71e-4 0,0 l -6.14999,-1.99e-4 c -0.0999,-2.7e-4 -2.7e-4,0.100002 0,0 l 1.3e-4,-3.07499 c -2e-4,-0.055 -0.045,-0.09999 -0.1,-0.100033 l -6.35,-1.6e-4 c -0.055,2.03e-4 -0.1,0.04497 -0.10004,0.1 l -1.2e-4,3.075001 c -2.8e-4,0.0999 0.10005,2.71e-4 0,0 l -6.15,-1.99e-4 c -0.10004,-2.81e-4 -2.7e-4,0.0999 0,0 l 1.3e-4,-3.075011 c -2e-4,-0.055 -0.045,-0.09999 -0.1,-0.100032 l -6.35,-1.61e-4 c -0.055,2.03e-4 -0.1,0.04497 -0.10004,0.100001 l -1.3e-4,3.075 c -2.7e-4,0.100041 0.10005,2.72e-4 0,0 l -11.79999,-3.44e-4 c -0.055,1.93e-4 -0.1,0.04497 -0.10003,0.09999 l -0.002,87.300001 c -2e-4,-0.055 0.045,-0.1 0.10004,-0.1 -1.904,4.1e-4 -3.76501,0.56389 -5.34705,1.62185 -1.58303,1.05795 -2.81707,2.56092 -3.54512,4.31989 -0.72904,1.75799 -0.9191,3.69397 -0.54817,5.56098 0.37096,1.86702 1.28792,3.58205 2.63388,4.92808 1.34597,1.34605 3.06093,2.26309 4.92793,2.63413 1.86699,0.37106 3.80298,0.18116 5.56102,-0.54783 1.75901,-0.72796 3.26204,-1.96191 4.32008,-3.54488 1.05806,-1.58296 1.62211,-3.44295 1.62216,-5.34695 l 1.4e-4,-3.175 c -10e-6,0.017 -0.005,0.035 -0.013,0.05 -0.009,0.015 -0.0221,0.028 -0.0371,0.0369 -0.015,0.008 -0.032,0.013 -0.05,0.013 -0.018,-1e-5 -0.0349,-0.005 -0.0501,-0.013 -0.015,-0.009 -0.028,-0.022 -0.0369,-0.037 -0.008,-0.015 -0.013,-0.0331 -0.013,-0.05 2e-4,0.055 0.045,0.1 0.1,0.10003 l 7.037,2e-4 c 0.0999,2.8e-4 0.002,-0.10001 0,0 l -1.3e-4,3.07501 c 0.001,0.055 0.045,0.1 0.1,0.10003 l 6.35099,1.8e-4 c 0.055,-2e-4 0.1,-0.045 0.10004,-0.1 l 1.3e-4,-3.07499 c 2.7e-4,-0.1 -0.1,-2.8e-4 -9.9e-4,0 l 6.151,1.5e-4 c 0.10004,2.7e-4 2.7e-4,-0.0999 0,0 l -1.3e-4,3.07498 c 1.9e-4,0.055 0.0441,0.1 0.1,0.10004 l 6.349,1.8e-4 c 0.056,-1.7e-4 0.1,-0.045 0.10003,-0.1 l 1.3e-4,-3.07499 c 2.7e-4,-0.0999 -0.099,-2.5e-4 0,0 l 6.15,1.5e-4 c 0.0999,2.8e-4 0.002,-0.1 0,0 l -1.3e-4,3.07501 c 1.9e-4,0.055 0.045,0.1 0.1,0.10003 l 6.35,1.8e-4 c 0.056,-1.7e-4 0.10102,-0.0451 0.10103,-0.1 l 1.3e-4,-3.07501 c 2.7e-4,-0.0999 -0.101,-3e-4 0,0 l 6.14899,1.7e-4 c 0.10099,3e-4 2.7e-4,-0.0999 0,0 l -1.3e-4,3.075 c 2e-4,0.055 0.045,0.1 0.10101,0.0999 l 6.34999,1.8e-4 c 0.055,-2.1e-4 0.099,-0.045 0.099,-0.1 l 1.3e-4,-3.07501 c 2.7e-4,-0.0999 -0.099,-2.5e-4 10e-4,0 l 6.15001,1.6e-4 c 0.099,2.4e-4 2.8e-4,-0.1 0,0 l -1.3e-4,3.07501 c -7.8e-4,0.055 0.0441,0.1 0.099,0.10002 l 6.34999,1.8e-4 c 0.056,-1.7e-4 0.1,-0.045 0.10004,-0.1 l 1.3e-4,-3.07501 c 2.6e-4,-0.0999 -0.0999,-2.7e-4 0.001,0 l 6.15,1.6e-4 c 0.099,2.4e-4 -3.7e-4,-0.1 0,0 l -1.3e-4,3.07501 c -7.9e-4,0.055 0.0441,0.1 0.099,0.10002 l 6.35101,1.8e-4 c 0.055,-2.1e-4 0.099,-0.045 0.099,-0.1 l 1.3e-4,-3.075 c 0.002,-0.10002 -0.099,-2.5e-4 0,0 l 7.03799,2e-4 3.17501,1.4e-4 c 0.055,-2e-4 0.1,-0.045 0.10003,-0.1 z"
       stroke="#000000"
       stroke-width="0.2"
       id="path675" />
    <path
       d="m 614.21138,120.37105 c -1.19801,6.7e-4 -2.371,-0.34406 -3.37897,-0.99209 -1.00799,-0.64803 -1.80797,-1.57204 -2.30593,-2.66206 -0.49798,-1.09001 -0.67194,-2.30002 -0.5009,-3.48602 0.17003,-1.18499 0.67806,-2.29698 1.46308,-3.20295 0.78403,-0.90499 1.81305,-1.56596 2.96206,-1.90393 1.15,-0.33697 2.37199,-0.33692 3.522,9e-5 1.14899,0.33803 2.17796,0.99907 2.96194,1.90409 0.78498,0.90603 1.29294,2.01803 1.46291,3.20304 0.17097,1.186 -0.003,2.396 -0.5011,3.48598 -0.49803,1.09 -1.29806,2.01397 -2.30607,2.66194 -1.00802,0.64797 -2.18102,0.99194 -3.37902,0.9919 z"
       stroke="#0000ff"
       stroke-width="0.2"
       id="path677" />
    <path
       d="m 609.55959,112.53293 2.1e-4,-1.487 c 2.8e-4,-0.0999 -0.0999,-2.7e-4 0,0 l 4.552,8e-5 c 0.10001,2.7e-4 2.8e-4,-0.10005 0,0 l -1.2e-4,2.97499 c -2.8e-4,0.10005 0.0999,2.7e-4 0,0 l -4.55199,-8e-5 c -0.0999,-2.8e-4 -2.8e-4,0.0999 0,0 z"
       stroke="#0000ff"
       stroke-width="0.2"
       id="path679" />
  </g>
  <g
     id="p-2"
     style="fill:none;stroke-linecap:round;stroke-linejoin:round"
     transform="rotate(-89.998392,73.09731,66.343496)">
    <path
       d="m 22.615,597.515 c -0.017,0 -0.035,-0.005 -0.05,-0.013 -0.015,-0.009 -0.028,-0.022 -0.037,-0.037 -0.008,-0.015 -0.013,-0.032 -0.013,-0.05 0,-0.018 0.005,-0.035 0.013,-0.05 0.009,-0.015 0.022,-0.028 0.037,-0.037 0.015,-0.008 0.033,-0.013 0.05,-0.013 H 19.44 c 0.018,0 0.035,0.005 0.05,0.013 0.015,0.009 0.028,0.022 0.037,0.037 0.008,0.015 0.013,0.032 0.013,0.05 0,0.018 -0.005,0.035 -0.013,0.05 -0.009,0.015 -0.022,0.028 -0.037,0.037 -0.015,0.008 -0.032,0.013 -0.05,0.013 1.71,0 3.39,0.45 4.871,1.305 1.481,0.855 2.711,2.085 3.566,3.566 0.855,1.481 1.306,3.161 1.306,4.872 0,0.055 0.044,0.1 0.1,0.1 h 86.982 c 0.055,0 0.1,-0.045 0.1,-0.1 v -6.725 c 0,-0.1 -0.1,0 0,0 h 3.075 c 0.055,0 0.1,-0.045 0.1,-0.1 v -6.35 c 0,-0.056 -0.045,-0.1 -0.1,-0.1 h -3.075 c -0.1,0 0,0.1 0,0 v -6.725 -3.175 c 0,-0.056 -0.045,-0.1 -0.1,-0.1 h -11.9 c -0.055,0 -0.1,0.044 -0.1,0.1 v 3.075 c 0,0.1 0.1,0 0,0 h -6.15 c -0.1,0 0,0.1 0,0 v -3.075 c 0,-0.056 -0.045,-0.1 -0.1,-0.1 h -6.35 c -0.055,0 -0.1,0.044 -0.1,0.1 v 3.075 c 0,0.1 0.1,0 0,0 h -6.15 c -0.1,0 0,0.1 0,0 v -3.075 c 0,-0.056 -0.045,-0.1 -0.1,-0.1 h -6.35 c -0.055,0 -0.1,0.044 -0.1,0.1 v 3.075 c 0,0.1 0.1,0 0,0 h -6.15 c -0.1,0 0,0.1 0,0 v -3.075 c 0,-0.056 -0.045,-0.1 -0.1,-0.1 h -6.35 c -0.055,0 -0.1,0.044 -0.1,0.1 v 3.075 c 0,0.1 0.1,0 0,0 h -6.15 c -0.1,0 0,0.1 0,0 v -3.075 c 0,-0.056 -0.045,-0.1 -0.1,-0.1 h -6.35 c -0.055,0 -0.1,0.044 -0.1,0.1 v 3.075 c 0,0.1 0.1,0 0,0 h -6.15 c -0.1,0 0,0.1 0,0 v -3.075 c 0,-0.056 -0.045,-0.1 -0.1,-0.1 h -6.35 c -0.055,0 -0.1,0.044 -0.1,0.1 v 3.075 c 0,0.1 0.1,0 0,0 h -6.15 c -0.1,0 0,0.1 0,-10e-4 v -3.075 c 0,-0.055 -0.045,-0.099 -0.1,-0.099 h -11.9 c -0.055,-10e-4 -0.1,0.044 -0.1,0.099 v 3.175 1.804 c 0,0.1 0.1,0 0,0 H 19.44 c -0.055,0 -0.1,0.045 -0.1,0.1 v 6.35 c 0,0.055 0.045,0.1 0.1,0.1 h 3.075 c 0.1,0 0,-0.1 0,0 v 1.804 c 0,0.055 0.045,0.1 0.1,0.1 z"
       stroke="#000000"
       stroke-width="0.2"
       id="path682" />
  </g>
  <g
     id="p-3"
     style="fill:none;stroke-linecap:round;stroke-linejoin:round"
     transform="rotate(-89.998392,73.09731,66.343496)">
    <path
       d="m 22.615,582.395 h 11.9 c 0.055,0 0.1,-0.045 0.1,-0.1 v -3.075 c 0,-0.1 -0.1,0 0,0 h 6.15 c 0.1,0 0,-0.1 0,0 v 3.075 c 0,0.055 0.045,0.1 0.1,0.1 h 6.35 c 0.055,0 0.1,-0.045 0.1,-0.1 v -3.075 c 0,-0.1 -0.1,0 0,0 h 6.15 c 0.1,0 0,-0.1 0,0 v 3.075 c 0,0.055 0.045,0.1 0.1,0.1 h 6.35 c 0.055,0 0.1,-0.045 0.1,-0.1 v -3.075 c 0,-0.1 -0.1,0 0,0 h 6.15 c 0.1,0 0,-0.1 0,0 v 3.075 c 0,0.055 0.045,0.1 0.1,0.1 h 6.35 c 0.055,0 0.1,-0.045 0.1,-0.1 v -3.075 c 0,-0.1 -0.1,0 0,0 h 6.15 c 0.1,0 0,-0.1 0,0 v 3.075 c 0,0.055 0.045,0.1 0.1,0.1 h 6.35 c 0.055,0 0.1,-0.045 0.1,-0.1 v -3.075 c 0,-0.1 -0.1,0 0,0 h 6.15 c 0.1,0 0,-0.1 0,0 v 3.075 c 0,0.055 0.045,0.1 0.1,0.1 h 6.35 c 0.055,0 0.1,-0.045 0.1,-0.1 v -3.075 c 0,-0.1 -0.1,0 0,0 h 6.15 c 0.1,0 0,-0.1 0,0 v 3.075 c 0,0.055 0.045,0.1 0.1,0.1 h 11.9 c 0.055,0 0.1,-0.045 0.1,-0.1 v -3.175 -7.038 c 0,-0.1 -0.1,0 0,0 h 3.075 c 0.055,0 0.1,-0.044 0.1,-0.1 v -6.35 c 0,-0.055 -0.045,-0.099 -0.1,-0.099 h -3.075 c -0.1,0 0,0.099 0,0 v -6.15 c 0,-0.1 -0.1,-0.001 0,0 h 3.075 c 0.055,-0.001 0.1,-0.045 0.1,-0.1 v -6.35 c 0,-0.056 -0.045,-0.101 -0.1,-0.101 h -3.075 c -0.1,0 0,0.101 0,0 v -6.149 c 0,-0.101 -0.1,0 0,0 h 3.075 c 0.055,0 0.1,-0.045 0.1,-0.101 v -6.349 c 0,-0.056 -0.045,-0.1 -0.1,-0.1 h -3.075 c -0.1,0 0,0.1 0,0 v -6.151 c 0,-0.099 -0.1,10e-4 0,0 h 3.075 c 0.055,10e-4 0.1,-0.044 0.1,-0.099 v -6.35 c 0,-0.056 -0.045,-0.1 -0.1,-0.1 h -3.075 c -0.1,0 0,0.1 0,0 v -6.151 c 0,-0.099 -0.1,10e-4 0,0 h 3.075 c 0.055,10e-4 0.1,-0.044 0.1,-0.099 v -6.351 c 0,-0.055 -0.045,-0.099 -0.1,-0.099 h -3.075 c -0.1,0 0,0.099 0,-10e-4 v -6.149 c 0,-0.1 -0.1,0 0,0 h 3.075 c 0.055,0 0.1,-0.045 0.1,-0.1 v -6.35 c 0,-0.056 -0.045,-0.1 -0.1,-0.1 h -3.075 c -0.1,0 0,0.1 0,0 v -7.038 c 0,-0.055 -0.045,-0.1 -0.1,-0.1 0.018,0 0.035,0.005 0.05,0.013 0.015,0.009 0.028,0.022 0.037,0.037 0.008,0.015 0.013,0.032 0.013,0.05 0,0.018 -0.005,0.035 -0.013,0.05 -0.009,0.015 -0.022,0.028 -0.037,0.037 -0.015,0.008 -0.032,0.013 -0.05,0.013 h 3.175 c 1.904,0 3.765,-0.564 5.347,-1.622 1.583,-1.058 2.817,-2.561 3.545,-4.32 0.729,-1.758 0.919,-3.694 0.548,-5.561 -0.371,-1.867 -1.288,-3.582 -2.634,-4.928 -1.346,-1.346 -3.061,-2.263 -4.928,-2.634 -1.867,-0.371 -3.803,-0.181 -5.561,0.548 -1.759,0.728 -3.262,1.962 -4.32,3.545 -1.057,1.582 -1.622,3.443 -1.622,5.347 0,-0.055 0.045,-0.1 0.1,-0.1 h -87.3 c -0.055,0 -0.1,0.045 -0.1,0.1 v 11.8 c 0,0.1 0.1,0 0,0 H 19.44 c -0.055,0 -0.1,0.045 -0.1,0.1 v 6.35 c 0,0.055 0.045,0.1 0.1,0.1 h 3.075 c 0.1,0 0,-0.1 0,0 v 6.15 c 0,0.1 0.1,0 0,0 H 19.44 c -0.055,0 -0.1,0.045 -0.1,0.1 v 6.35 c 0,0.055 0.045,0.1 0.1,0.1 h 3.075 c 0.1,0 0,-0.1 0,0 v 6.15 c 0,0.1 0.1,0 0,0 H 19.44 c -0.055,0 -0.1,0.045 -0.1,0.1 v 6.35 c 0,0.055 0.045,0.1 0.1,0.1 h 3.075 c 0.1,0 0,-0.1 0,0 v 6.15 c 0,0.1 0.1,0 0,0 H 19.44 c -0.055,0 -0.1,0.045 -0.1,0.1 v 6.35 c 0,0.055 0.045,0.1 0.1,0.1 h 3.075 c 0.1,0 0,-0.1 0,0 v 6.15 c 0,0.1 0.1,0 0,0 H 19.44 c -0.055,0 -0.1,0.045 -0.1,0.1 v 6.35 c 0,0.055 0.045,0.1 0.1,0.1 h 3.075 c 0.1,0 0,-0.1 0,0 v 6.15 c 0,0.1 0.1,0 0,0 H 19.44 c -0.055,0 -0.1,0.045 -0.1,0.1 v 6.35 c 0,0.055 0.045,0.1 0.1,0.1 h 3.075 c 0.1,0 0,-0.1 0,0 v 11.8 3.175 c 0,0.055 0.045,0.1 0.1,0.1 z"
       stroke="#000000"
       stroke-width="0.2"
       id="path685" />
    <path
       d="m 113.19,485.37 c 0,-1.198 0.344,-2.371 0.992,-3.379 0.648,-1.008 1.572,-1.808 2.662,-2.306 1.09,-0.498 2.3,-0.672 3.486,-0.501 1.185,0.17 2.297,0.678 3.203,1.463 0.905,0.784 1.566,1.813 1.904,2.962 0.337,1.15 0.337,2.372 0,3.522 -0.338,1.149 -0.999,2.178 -1.904,2.962 -0.906,0.785 -2.018,1.293 -3.203,1.463 -1.186,0.171 -2.396,-0.003 -3.486,-0.501 -1.09,-0.498 -2.014,-1.298 -2.662,-2.306 -0.648,-1.008 -0.992,-2.181 -0.992,-3.379 z"
       stroke="#0000ff"
       stroke-width="0.2"
       id="path687" />
    <path
       d="m 117.853,480.718 h 1.487 c 0.1,0 0,-0.1 0,0 v 4.552 c 0,0.1 0.1,0 0,0 h -2.975 c -0.1,0 0,0.1 0,0 v -4.552 c 0,-0.1 -0.1,0 0,0 z"
       stroke="#0000ff"
       stroke-width="0.2"
       id="path689" />
  </g>
  <g
     id="p-4"
     style="fill:none;stroke-linecap:round;stroke-linejoin:round"
     transform="rotate(-89.998392,73.09731,66.343496)">
    <path
       d="m 22.615,483.783 h 86.983 c 0.055,0 0.1,-0.045 0.1,-0.1 0,-1.711 0.45,-3.391 1.305,-4.872 0.855,-1.481 2.085,-2.711 3.566,-3.566 1.481,-0.855 3.161,-1.305 4.871,-1.305 -0.017,0 -0.035,-0.005 -0.05,-0.013 -0.015,-0.009 -0.028,-0.022 -0.037,-0.037 -0.008,-0.015 -0.013,-0.032 -0.013,-0.05 0,-0.018 0.005,-0.035 0.013,-0.05 0.009,-0.015 0.022,-0.028 0.037,-0.037 0.015,-0.008 0.033,-0.013 0.05,-0.013 h -3.175 c 0.018,0 0.035,0.005 0.05,0.013 0.015,0.009 0.028,0.022 0.037,0.037 0.008,0.015 0.013,0.032 0.013,0.05 0,0.018 -0.005,0.035 -0.013,0.05 -0.009,0.015 -0.022,0.028 -0.037,0.037 -0.015,0.008 -0.032,0.013 -0.05,0.013 0.055,0 0.1,-0.045 0.1,-0.1 v -1.804 c 0,-0.1 -0.1,0 0,0 h 3.075 c 0.055,0 0.1,-0.045 0.1,-0.1 v -6.35 c 0,-0.055 -0.045,-0.1 -0.1,-0.1 h -3.075 c -0.1,0 0,0.1 0,0 v -1.803 -3.176 c 0,-0.055 -0.045,-0.1 -0.1,-0.1 h -11.9 c -0.055,0 -0.1,0.045 -0.1,0.1 v 3.075 c 0,0.1 0.1,0 0,0 h -6.15 c -0.1,0 0,0.1 0,0 v -3.075 c 0,-0.055 -0.045,-0.1 -0.1,-0.1 h -6.35 c -0.055,0 -0.1,0.045 -0.1,0.1 v 3.075 c 0,0.1 0.1,0 0,0 h -6.15 c -0.1,0 0,0.1 0,0 v -3.075 c 0,-0.055 -0.045,-0.1 -0.1,-0.1 h -6.35 c -0.055,0 -0.1,0.045 -0.1,0.1 v 3.075 c 0,0.1 0.1,0 0,0 h -6.15 c -0.1,0 0,0.1 0,0 v -3.075 c 0,-0.055 -0.045,-0.1 -0.1,-0.1 h -6.35 c -0.055,0 -0.1,0.045 -0.1,0.1 v 3.075 c 0,0.1 0.1,0 0,0 h -6.15 c -0.1,0 0,0.1 0,0 v -3.075 c 0,-0.055 -0.045,-0.1 -0.1,-0.1 h -6.35 c -0.055,0 -0.1,0.045 -0.1,0.1 v 3.075 c 0,0.1 0.1,0 0,0 h -6.15 c -0.1,0 0,0.1 0,0 v -3.075 c 0,-0.055 -0.045,-0.1 -0.1,-0.1 h -6.35 c -0.055,0 -0.1,0.045 -0.1,0.1 v 3.075 c 0,0.1 0.1,0 0,0 h -6.15 c -0.1,0 0,0.1 0,0 v -3.075 c 0,-0.055 -0.045,-0.1 -0.1,-0.1 h -11.9 c -0.055,0 -0.1,0.045 -0.1,0.1 v 3.175 6.725 c 0,0.1 0.1,0 0,0 H 19.44 c -0.055,0 -0.1,0.045 -0.1,0.1 v 6.35 c 0,0.056 0.045,0.1 0.1,0.1 h 3.075 c 0.1,0 0,-0.1 0,0 v 6.725 c 0,0.056 0.045,0.1 0.1,0.1 z"
       stroke="#000000"
       stroke-width="0.2"
       id="path692" />
  </g>
  <g
     id="p-5"
     style="fill:none;stroke-linecap:round;stroke-linejoin:round"
     transform="rotate(-89.998392,73.09731,66.343496)">
    <path
       d="m 22.615,458.82 h 11.9 c 0.055,0 0.1,-0.045 0.1,-0.1 v -3.075 c 0,-0.1 -0.1,0 0,0 h 6.15 c 0.1,0 0,-0.1 0,0 v 3.075 c 0,0.055 0.045,0.1 0.1,0.1 h 6.35 c 0.055,0 0.1,-0.045 0.1,-0.1 v -3.075 c 0,-0.1 -0.1,0 0,0 h 6.15 c 0.1,0 0,-0.1 0,0 v 3.075 c 0,0.055 0.045,0.1 0.1,0.1 h 6.35 c 0.055,0 0.1,-0.045 0.1,-0.1 v -3.075 c 0,-0.1 -0.1,0 0,0 h 6.15 c 0.1,0 0,-0.1 0,0 v 3.075 c 0,0.055 0.045,0.1 0.1,0.1 h 6.35 c 0.055,0 0.1,-0.045 0.1,-0.1 v -3.075 c 0,-0.1 -0.1,0 0,0 h 6.15 c 0.1,0 0,-0.1 0,0 v 3.075 c 0,0.055 0.045,0.1 0.1,0.1 h 6.35 c 0.055,0 0.1,-0.045 0.1,-0.1 v -3.075 c 0,-0.1 -0.1,0 0,0 h 6.15 c 0.1,0 0,-0.1 0,0 v 3.075 c 0,0.055 0.045,0.1 0.1,0.1 h 6.35 c 0.055,0 0.1,-0.045 0.1,-0.1 v -3.075 c 0,-0.1 -0.1,0 0,0 h 6.15 c 0.1,0 0,-0.1 0,0 v 3.075 c 0,0.055 0.045,0.1 0.1,0.1 h 11.9 3.175 c 0.055,0 0.1,-0.045 0.1,-0.1 v -3.175 -11.9 c 0,-0.055 -0.045,-0.1 -0.1,-0.1 h -3.075 c -0.1,0 0,0.1 0,0 v -6.15 c 0,-0.1 -0.1,0 0,0 h 3.075 c 0.055,0 0.1,-0.045 0.1,-0.1 v -6.35 c 0,-0.055 -0.045,-0.1 -0.1,-0.1 h -3.075 c -0.1,0 0,0.1 0,0 v -6.15 c 0,-0.1 -0.1,0 0,0 h 3.075 c 0.055,0 0.1,-0.045 0.1,-0.1 v -6.35 c 0,-0.055 -0.045,-0.1 -0.1,-0.1 h -3.075 c -0.1,0 0,0.1 0,0 v -6.15 c 0,-0.1 -0.1,0 0,0 h 3.075 c 0.055,0 0.1,-0.045 0.1,-0.1 v -6.35 c 0,-0.055 -0.045,-0.1 -0.1,-0.1 h -3.075 c -0.1,0 0,0.1 0,0 v -6.15 c 0,-0.1 -0.1,0 0,0 h 3.075 c 0.055,0 0.1,-0.045 0.1,-0.1 v -6.35 c 0,-0.055 -0.045,-0.1 -0.1,-0.1 h -3.075 c -0.1,0 0,0.1 0,0 v -6.15 c 0,-0.1 -0.1,0 0,0 h 3.075 c 0.055,0 0.1,-0.045 0.1,-0.1 v -6.35 c 0,-0.055 -0.045,-0.1 -0.1,-0.1 h -3.075 c -0.1,0 0,0.1 0,0 v -6.15 c 0,-0.1 -0.1,0 0,0 h 3.075 c 0.055,0 0.1,-0.045 0.1,-0.1 v -11.9 c 0,-0.055 -0.045,-0.1 -0.1,-0.1 h -3.175 -93.65 -3.175 c -0.055,0 -0.1,0.045 -0.1,0.1 v 11.9 c 0,0.055 0.045,0.1 0.1,0.1 h 3.075 c 0.1,0 0,-0.1 0,0 v 6.15 c 0,0.1 0.1,0 0,0 H 19.44 c -0.055,0 -0.1,0.045 -0.1,0.1 v 6.35 c 0,0.055 0.045,0.1 0.1,0.1 h 3.075 c 0.1,0 0,-0.1 0,0 v 6.15 c 0,0.1 0.1,0 0,0 H 19.44 c -0.055,0 -0.1,0.045 -0.1,0.1 v 6.35 c 0,0.055 0.045,0.1 0.1,0.1 h 3.075 c 0.1,0 0,-0.1 0,0 v 6.15 c 0,0.1 0.1,0 0,0 H 19.44 c -0.055,0 -0.1,0.045 -0.1,0.1 v 6.35 c 0,0.055 0.045,0.1 0.1,0.1 h 3.075 c 0.1,0 0,-0.1 0,0 v 6.15 c 0,0.1 0.1,0 0,0 H 19.44 c -0.055,0 -0.1,0.045 -0.1,0.1 v 6.35 c 0,0.055 0.045,0.1 0.1,0.1 h 3.075 c 0.1,0 0,-0.1 0,0 v 6.15 c 0,0.1 0.1,0 0,0 H 19.44 c -0.055,0 -0.1,0.045 -0.1,0.1 v 6.35 c 0,0.055 0.045,0.1 0.1,0.1 h 3.075 c 0.1,0 0,-0.1 0,0 v 6.15 c 0,0.1 0.1,0 0,0 H 19.44 c -0.055,0 -0.1,0.045 -0.1,0.1 v 11.9 3.175 c 0,0.055 0.045,0.1 0.1,0.1 z"
       stroke="#000000"
       stroke-width="0.2"
       id="path695" />
  </g>
  <g
     id="p-6"
     style="fill:none;stroke-linecap:round;stroke-linejoin:round"
     transform="rotate(-89.998392,73.09731,66.343496)">
    <path
       d="m 22.615,360.208 h 11.9 c 0.055,0 0.1,-0.045 0.1,-0.1 v -3.076 c 0,-0.099 -0.1,0.001 0,0 h 6.15 c 0.1,0.001 0,-0.099 0,0 v 3.076 c 0,0.055 0.045,0.1 0.1,0.1 h 6.35 c 0.055,0 0.1,-0.045 0.1,-0.1 v -3.076 c 0,-0.099 -0.1,0.001 0,0 h 6.15 c 0.1,0.001 0,-0.099 0,0.001 v 3.075 c 0,0.055 0.045,0.1 0.1,0.1 h 6.35 c 0.055,0 0.1,-0.045 0.1,-0.1 v -3.076 c 0,-0.099 -0.1,0.001 0,0 h 6.15 c 0.1,0.001 0,-0.099 0,0 v 3.076 c 0,0.055 0.045,0.1 0.1,0.1 h 6.35 c 0.055,0 0.1,-0.045 0.1,-0.1 v -3.075 c 0,-0.1 -0.1,0 0,0 h 6.15 c 0.1,0 0,-0.1 0,-0.001 v 3.076 c 0,0.055 0.045,0.1 0.1,0.1 h 6.35 c 0.055,0 0.1,-0.045 0.1,-0.1 v -3.075 c 0,-0.1 -0.1,0 0,0 h 6.15 c 0.1,0 0,-0.1 0,0 v 3.075 c 0,0.055 0.045,0.1 0.1,0.1 h 6.35 c 0.055,0 0.1,-0.045 0.1,-0.1 v -3.075 c 0,-0.1 -0.1,0 0,0 h 6.15 c 0.1,0 0,-0.1 0,0 v 3.075 c 0,0.055 0.045,0.1 0.1,0.1 h 11.9 3.175 c 0.055,0 0.1,-0.045 0.1,-0.1 v -3.175 -7.138 c 0,-0.055 -0.045,-0.1 -0.1,-0.1 h -3.075 c -0.1,0 0,0.1 0,0 v -6.15 c 0,-0.1 -0.1,0 0,0 h 3.075 c 0.055,0 0.1,-0.045 0.1,-0.1 v -6.35 c 0,-0.055 -0.045,-0.1 -0.1,-0.1 h -3.075 c -0.1,0 0,0.1 0,0 v -6.15 c 0,-0.1 -0.1,0 0,0 h 3.075 c 0.055,0 0.1,-0.045 0.1,-0.1 v -6.35 c 0,-0.055 -0.045,-0.1 -0.1,-0.1 h -3.075 c -0.1,0 0,0.1 0,0 v -6.15 c 0,-0.1 -0.1,0 0,0 h 3.075 c 0.055,0 0.1,-0.045 0.1,-0.1 v -6.35 c 0,-0.055 -0.045,-0.1 -0.1,-0.1 h -3.075 c -0.1,0 0,0.1 0,0 v -6.15 c 0,-0.1 -0.1,0 0,0 h 3.075 c 0.055,0 0.1,-0.045 0.1,-0.1 v -6.35 c 0,-0.055 -0.045,-0.1 -0.1,-0.1 h -3.075 c -0.1,0 0,0.1 0,0 v -6.15 c 0,-0.1 -0.1,0 0,0 h 3.075 c 0.055,0 0.1,-0.045 0.1,-0.1 v -6.35 c 0,-0.055 -0.045,-0.1 -0.1,-0.1 h -3.075 c -0.1,0 0,0.1 0,0 v -6.15 c 0,-0.1 -0.1,0 0,0 h 3.075 c 0.055,0 0.1,-0.045 0.1,-0.1 v -7.138 c 0,-0.055 -0.045,-0.1 -0.1,-0.1 h -3.075 c -0.1,0 0,0.1 0,0 v -9.425 c 0,-0.055 -0.045,-0.1 -0.1,-0.1 h -93.65 c -0.055,0 -0.1,0.045 -0.1,0.1 v 9.425 c 0,0.1 0.1,0 0,0 H 19.44 c -0.055,0 -0.1,0.045 -0.1,0.1 v 7.138 c 0,0.055 0.045,0.1 0.1,0.1 h 3.075 c 0.1,0 0,-0.1 0,0 v 6.15 c 0,0.1 0.1,0 0,0 H 19.44 c -0.055,0 -0.1,0.045 -0.1,0.1 v 6.35 c 0,0.055 0.045,0.1 0.1,0.1 h 3.075 c 0.1,0 0,-0.1 0,0 v 6.15 c 0,0.1 0.1,0 0,0 H 19.44 c -0.055,0 -0.1,0.045 -0.1,0.1 v 6.35 c 0,0.055 0.045,0.1 0.1,0.1 h 3.075 c 0.1,0 0,-0.1 0,0 v 6.15 c 0,0.1 0.1,0 0,0 H 19.44 c -0.055,0 -0.1,0.045 -0.1,0.1 v 6.35 c 0,0.055 0.045,0.1 0.1,0.1 h 3.075 c 0.1,0 0,-0.1 0,0 v 6.15 c 0,0.1 0.1,0 0,0 H 19.44 c -0.055,0 -0.1,0.045 -0.1,0.1 v 6.35 c 0,0.055 0.045,0.1 0.1,0.1 h 3.075 c 0.1,0 0,-0.1 0,0 v 6.15 c 0,0.1 0.1,0 0,0 H 19.44 c -0.055,0 -0.1,0.045 -0.1,0.1 v 6.35 c 0,0.055 0.045,0.1 0.1,0.1 h 3.075 c 0.1,0 0,-0.1 0,0 v 6.15 c 0,0.1 0.1,0 0,0 H 19.44 c -0.055,0 -0.1,0.045 -0.1,0.1 v 7.138 3.175 c 0,0.055 0.045,0.1 0.1,0.1 z"
       stroke="#000000"
       stroke-width="0.2"
       id="path698" />
  </g>
  <g
     id="p-7"
     style="fill:none;stroke-linecap:round;stroke-linejoin:round"
     transform="rotate(-89.998392,73.09731,66.343496)">
    <path
       d="m 22.615,261.595 h 11.9 c 0.055,0 0.1,-0.045 0.1,-0.1 v -3.075 c 0,-0.1 -0.1,0 0,0 h 6.15 c 0.1,0 0,-0.1 0,0 v 3.075 c 0,0.055 0.045,0.1 0.1,0.1 h 6.35 c 0.055,0 0.1,-0.045 0.1,-0.1 v -3.075 c 0,-0.1 -0.1,0 0,0 h 6.15 c 0.1,0 0,-0.1 0,0 v 3.075 c 0,0.055 0.045,0.1 0.1,0.1 h 6.35 c 0.055,0 0.1,-0.045 0.1,-0.1 v -3.075 c 0,-0.1 -0.1,0 0,0 h 6.15 c 0.1,0 0,-0.1 0,0 v 3.075 c 0,0.055 0.045,0.1 0.1,0.1 h 6.35 c 0.055,0 0.1,-0.045 0.1,-0.1 v -3.075 c 0,-0.1 -0.1,0 0,0 h 6.15 c 0.1,0 0,-0.1 0,0 v 3.075 c 0,0.055 0.045,0.1 0.1,0.1 h 6.35 c 0.055,0 0.1,-0.045 0.1,-0.1 v -3.075 c 0,-0.1 -0.1,0 0,0 h 6.15 c 0.1,0 0,-0.1 0,0 v 3.075 c 0,0.055 0.045,0.1 0.1,0.1 h 6.35 c 0.055,0 0.1,-0.045 0.1,-0.1 v -3.075 c 0,-0.1 -0.1,0 0,0 h 6.15 c 0.1,0 0,-0.1 0,0 v 3.075 c 0,0.055 0.045,0.1 0.1,0.1 h 11.9 3.175 c 0.055,0 0.1,-0.045 0.1,-0.1 v -3.175 -6.825 c 0,-0.055 -0.045,-0.1 -0.1,-0.1 h -3.075 c -0.1,0 0,0.1 0,0 v -6.15 c 0,-0.1 -0.1,0 0,0 h 3.075 c 0.055,0 0.1,-0.045 0.1,-0.1 v -6.825 c 0,-0.055 -0.045,-0.1 -0.1,-0.1 h -3.175 -93.65 -3.175 c -0.055,0 -0.1,0.045 -0.1,0.1 v 6.825 c 0,0.055 0.045,0.1 0.1,0.1 h 3.075 c 0.1,0 0,-0.1 0,0 v 6.15 c 0,0.1 0.1,0 0,0 H 19.44 c -0.055,0 -0.1,0.045 -0.1,0.1 v 6.825 3.175 c 0,0.055 0.045,0.1 0.1,0.1 z"
       stroke="#000000"
       stroke-width="0.2"
       id="path701" />
  </g>
  <g
     id="p-8"
     style="fill:none;stroke-linecap:round;stroke-linejoin:round"
     transform="rotate(-89.998392,73.09731,66.343496)">
    <path
       d="m 22.615,236.633 h 11.9 c 0.055,0 0.1,-0.045 0.1,-0.1 v -3.075 c 0,-0.1 -0.1,0 0,0 h 6.15 c 0.1,0 0,-0.1 0,-0.001 v 3.076 c 0,0.055 0.045,0.1 0.1,0.1 h 6.35 c 0.055,0 0.1,-0.045 0.1,-0.1 v -3.075 c 0,-0.1 -0.1,0 0,0 h 6.15 c 0.1,0 0,-0.1 0,-0.001 v 3.076 c 0,0.055 0.045,0.1 0.1,0.1 h 6.35 c 0.055,0 0.1,-0.045 0.1,-0.1 v -3.075 c 0,-0.1 -0.1,0 0,0 h 6.15 c 0.1,0 0,-0.1 0,-0.001 v 3.076 c 0,0.055 0.045,0.1 0.1,0.1 h 6.35 c 0.055,0 0.1,-0.045 0.1,-0.1 v -3.076 c 0,-0.099 -0.1,0.001 0,0 h 6.15 c 0.1,0.001 0,-0.099 0,0.001 v 3.075 c 0,0.055 0.045,0.1 0.1,0.1 h 6.35 c 0.055,0 0.1,-0.045 0.1,-0.1 v -3.075 c 0,-0.1 -0.1,0 0,0 h 6.15 c 0.1,0 0,-0.1 0,-0.001 v 3.076 c 0,0.055 0.045,0.1 0.1,0.1 h 6.35 c 0.055,0 0.1,-0.045 0.1,-0.1 v -3.075 c 0,-0.1 -0.1,0 0,0 h 6.15 c 0.1,0 0,-0.1 0,0 v 3.075 c 0,0.055 0.045,0.1 0.1,0.1 h 11.9 3.175 c 0.055,0 0.1,-0.045 0.1,-0.1 v -3.175 -1.904 c 0,-0.055 -0.045,-0.1 -0.1,-0.1 h -3.075 c -0.1,0 0,0.1 0,0 v -6.15 c 0,-0.1 -0.1,0 0,0 h 3.075 c 0.055,0 0.1,-0.045 0.1,-0.1 V 223.2 c 0,-0.055 -0.045,-0.1 -0.1,-0.1 h -3.075 c -0.1,0 0,0.1 0,0 v -4.573 c 0,-0.1 -0.1,0 0,0 h 3.075 c 0.055,0 0.1,-0.045 0.1,-0.1 v -4.752 c 0,-0.055 -0.045,-0.1 -0.1,-0.1 h -100 c -0.055,0 -0.1,0.045 -0.1,0.1 v 4.752 c 0,0.055 0.045,0.1 0.1,0.1 h 3.075 c 0.1,0 0,-0.1 0,0 v 4.573 c 0,0.1 0.1,0 0,0 H 19.44 c -0.055,0 -0.1,0.045 -0.1,0.1 v 1.904 c 0,0.055 0.045,0.1 0.1,0.1 h 3.075 c 0.1,0 0,-0.1 0,0 v 6.15 c 0,0.1 0.1,0 0,0 H 19.44 c -0.055,0 -0.1,0.045 -0.1,0.1 v 1.904 3.175 c 0,0.055 0.045,0.1 0.1,0.1 z"
       stroke="#000000"
       stroke-width="0.2"
       id="path704" />
  </g>
  <g
     id="p-9"
     style="fill:none;stroke-linecap:round;stroke-linejoin:round"
     transform="rotate(-89.998392,73.09731,66.343496)">
    <path
       d="m 22.615,208.813 h 11.8 c 0.1,0 0,-0.1 0,0 v 3.075 c 0,0.055 0.045,0.1 0.1,0.1 h 6.35 c 0.055,0 0.1,-0.045 0.1,-0.1 v -3.075 c 0,-0.1 -0.1,0 0,0 h 6.15 c 0.1,0 0,-0.1 0,0 v 3.075 c 0,0.055 0.045,0.1 0.1,0.1 h 6.35 c 0.055,0 0.1,-0.045 0.1,-0.1 v -3.076 c 0,-0.099 -0.1,10e-4 0,0 h 6.15 c 0.1,10e-4 0,-0.099 0,0 v 3.076 c 0,0.055 0.045,0.1 0.1,0.1 h 6.35 c 0.055,0 0.1,-0.045 0.1,-0.1 v -3.076 c 0,-0.099 -0.1,10e-4 0,0 h 6.15 c 0.1,10e-4 0,-0.099 0,10e-4 v 3.075 c 0,0.055 0.045,0.1 0.1,0.1 h 6.35 c 0.055,0 0.1,-0.045 0.1,-0.1 v -3.076 c 0,-0.099 -0.1,10e-4 0,0 h 6.15 c 0.1,10e-4 0,-0.099 0,10e-4 v 3.075 c 0,0.055 0.045,0.1 0.1,0.1 h 6.35 c 0.055,0 0.1,-0.045 0.1,-0.1 v -3.076 c 0,-0.099 -0.1,10e-4 0,0 h 6.15 c 0.1,10e-4 0,-0.099 0,0 v 3.076 c 0,0.055 0.045,0.1 0.1,0.1 h 6.35 c 0.055,0 0.1,-0.045 0.1,-0.1 v -3.075 c 0,-0.1 -0.1,0 0,0 h 11.8 c 0.055,0 0.1,-0.045 0.1,-0.1 v -11.801 c 0,-0.1 -0.1,0.001 0,0 h 3.075 c 0.055,0.001 0.1,-0.044 0.1,-0.1 v -6.35 c 0,-0.055 -0.045,-0.1 -0.1,-0.1 h -3.075 c -0.1,0 0,0.1 0,0 v -6.15 c 0,-0.1 -0.1,0 0,0 h 3.075 c 0.055,0 0.1,-0.044 0.1,-0.1 v -6.35 c 0,-0.055 -0.045,-0.1 -0.1,-0.1 h -3.075 c -0.1,0 0,0.1 0,0.001 v -6.15 c 0,-0.101 -0.1,-0.001 0,0 h 3.075 c 0.055,-0.001 0.1,-0.045 0.1,-0.101 v -6.35 c 0,-0.055 -0.045,-0.1 -0.1,-0.1 h -3.075 c -0.1,0 0,0.1 0,0.001 v -6.151 c 0,-0.1 -0.1,0 0,0 h 3.075 c 0.055,0 0.1,-0.044 0.1,-0.1 v -6.35 c 0,-0.055 -0.045,-0.1 -0.1,-0.1 h -3.075 c -0.1,0 0,0.1 0,0.001 v -6.15 c 0,-0.101 -0.1,-0.001 0,0 h 3.075 c 0.055,-0.001 0.1,-0.045 0.1,-0.101 v -6.35 c 0,-0.055 -0.045,-0.1 -0.1,-0.1 h -3.075 c -0.1,0 0,0.1 0,0 v -6.15 c 0,-0.1 -0.1,0 0,0 h 3.075 c 0.055,0 0.1,-0.044 0.1,-0.1 v -6.35 c 0,-0.055 -0.045,-0.1 -0.1,-0.1 h -3.075 c -0.1,0 0,0.1 0,0 v -11.8 c 0,-0.055 -0.045,-0.1 -0.1,-0.1 h -11.8 c -0.1,0 0,0.1 0,0 v -3.075 c 0,-0.055 -0.045,-0.1 -0.1,-0.1 h -6.35 c -0.055,0 -0.1,0.045 -0.1,0.1 v 3.075 c 0,0.1 0.1,0 0,0 h -6.15 c -0.1,0 0,0.1 0,0 v -3.075 c 0,-0.055 -0.045,-0.1 -0.1,-0.1 h -6.35 c -0.055,0 -0.1,0.045 -0.1,0.1 v 3.075 c 0,0.1 0.1,0 0,0 h -6.15 c -0.1,0 0,0.1 0,0 v -3.075 c 0,-0.055 -0.045,-0.1 -0.1,-0.1 h -6.35 c -0.055,0 -0.1,0.045 -0.1,0.1 v 3.075 c 0,0.1 0.1,0 0,0 h -6.15 c -0.1,0 0,0.1 0,0 v -3.075 c 0,-0.055 -0.045,-0.1 -0.1,-0.1 h -6.35 c -0.055,0 -0.1,0.045 -0.1,0.1 v 3.075 c 0,0.1 0.1,0 0,0 h -6.15 c -0.1,0 0,0.1 0,0 v -3.075 c 0,-0.055 -0.045,-0.1 -0.1,-0.1 h -6.35 c -0.055,0 -0.1,0.045 -0.1,0.1 v 3.075 c 0,0.1 0.1,0 0,0 h -6.15 c -0.1,0 0,0.1 0,0 v -3.075 c 0,-0.055 -0.045,-0.1 -0.1,-0.1 h -6.35 c -0.055,0 -0.1,0.045 -0.1,0.1 v 3.075 c 0,0.1 0.1,0 0,0 h -11.8 c -0.055,0 -0.1,0.045 -0.1,0.1 v 11.8 c 0,0.1 0.1,0 0,0 H 19.44 c -0.055,0 -0.1,0.045 -0.1,0.1 v 6.35 c 0,0.056 0.045,0.1 0.1,0.1 h 3.075 c 0.1,0 0,-0.1 0,0 v 6.15 c 0,0.1 0.1,0 0,0 H 19.44 c -0.055,0 -0.1,0.045 -0.1,0.1 v 6.35 c 0,0.056 0.045,0.1 0.1,0.1 h 3.075 c 0.1,0 0,-0.1 0,0 v 6.15 c 0,0.1 0.1,0 0,0 H 19.44 c -0.055,0 -0.1,0.045 -0.1,0.1 v 6.35 c 0,0.056 0.045,0.1 0.1,0.1 h 3.075 c 0.1,0 0,-0.1 0,0 v 6.15 c 0,0.1 0.1,0 0,0 H 19.44 c -0.055,0 -0.1,0.045 -0.1,0.1 v 6.35 c 0,0.056 0.045,0.1 0.1,0.1 h 3.075 c 0.1,0 0,-0.1 0,0 v 6.15 c 0,0.1 0.1,0 0,0 H 19.44 c -0.055,0 -0.1,0.045 -0.1,0.1 v 6.35 c 0,0.056 0.045,0.1 0.1,0.1 h 3.075 c 0.1,0 0,-0.1 0,0.001 v 6.149 c 0,0.1 0.1,0 0,0 H 19.44 c -0.055,0 -0.1,0.045 -0.1,0.1 v 6.35 c 0,0.056 0.045,0.101 0.1,0.101 h 3.075 c 0.1,0 0,-0.101 0,0 v 11.8 c 0,0.055 0.045,0.1 0.1,0.1 z"
       stroke="#000000"
       stroke-width="0.2"
       id="path707" />
  </g>
  <g
     id="p-10"
     style="fill:none;stroke-linecap:round;stroke-linejoin:round"
     transform="rotate(-89.998392,73.09731,66.343496)">
    <path
       d="m 22.615,107.025 h 11.8 c 0.1,0 0,-0.1 0,0 v 3.075 c 0,0.055 0.045,0.1 0.1,0.1 h 6.35 c 0.055,0 0.1,-0.045 0.1,-0.1 v -3.075 c 0,-0.1 -0.1,0 0,0 h 6.15 c 0.1,0 0,-0.1 0,0 v 3.075 c 0,0.055 0.045,0.1 0.1,0.1 h 6.35 c 0.055,0 0.1,-0.045 0.1,-0.1 v -3.075 c 0,-0.1 -0.1,0 0,0 h 6.15 c 0.1,0 0,-0.1 0,0 v 3.075 c 0,0.055 0.045,0.1 0.1,0.1 h 6.35 c 0.055,0 0.1,-0.045 0.1,-0.1 v -3.075 c 0,-0.1 -0.1,0 0,0 h 6.15 c 0.1,0 0,-0.1 0,0 v 3.075 c 0,0.055 0.045,0.1 0.1,0.1 h 6.35 c 0.055,0 0.1,-0.045 0.1,-0.1 v -3.075 c 0,-0.1 -0.1,0 0,0 h 6.15 c 0.1,0 0,-0.1 0,0 v 3.075 c 0,0.055 0.045,0.1 0.1,0.1 h 6.35 c 0.055,0 0.1,-0.045 0.1,-0.1 v -3.075 c 0,-0.1 -0.1,0 0,0 h 6.15 c 0.1,0 0,-0.1 0,0 v 3.075 c 0,0.055 0.045,0.1 0.1,0.1 h 6.35 c 0.055,0 0.1,-0.045 0.1,-0.1 v -3.075 c 0,-0.1 -0.1,0 0,0 h 11.8 c 0.055,0 0.1,-0.045 0.1,-0.1 v -11.8 c 0,-0.1 -0.1,0 0,0 h 3.075 c 0.055,0 0.1,-0.045 0.1,-0.1 v -6.35 c 0,-0.055 -0.045,-0.1 -0.1,-0.1 h -3.075 c -0.1,0 0,0.1 0,0 v -6.15 c 0,-0.1 -0.1,0 0,0 h 3.075 c 0.055,0 0.1,-0.045 0.1,-0.1 v -6.35 c 0,-0.055 -0.045,-0.1 -0.1,-0.1 h -3.075 c -0.1,0 0,0.1 0,0 v -6.15 c 0,-0.1 -0.1,0 0,0 h 3.075 c 0.055,0 0.1,-0.045 0.1,-0.1 v -6.35 c 0,-0.055 -0.045,-0.1 -0.1,-0.1 h -3.075 c -0.1,0 0,0.1 0,0 v -6.15 c 0,-0.1 -0.1,0 0,0 h 3.075 c 0.055,0 0.1,-0.045 0.1,-0.1 v -6.35 c 0,-0.055 -0.045,-0.1 -0.1,-0.1 h -3.075 c -0.1,0 0,0.1 0,0 v -6.15 c 0,-0.1 -0.1,0 0,0 h 3.075 c 0.055,0 0.1,-0.045 0.1,-0.1 v -6.35 c 0,-0.055 -0.045,-0.1 -0.1,-0.1 h -3.075 c -0.1,0 0,0.1 0,0 v -6.15 c 0,-0.1 -0.1,0 0,0 h 3.075 c 0.055,0 0.1,-0.045 0.1,-0.1 v -6.35 c 0,-0.055 -0.045,-0.1 -0.1,-0.1 h -3.075 c -0.1,0 0,0.1 0,0 v -11.8 c 0,-0.055 -0.045,-0.1 -0.1,-0.1 h -11.8 c -0.1,0 0,0.1 0,0 V 10.1 c 0,-0.055 -0.045,-0.1 -0.1,-0.1 h -6.35 c -0.055,0 -0.1,0.045 -0.1,0.1 v 3.075 c 0,0.1 0.1,0 0,0 h -6.15 c -0.1,0 0,0.1 0,0 V 10.1 c 0,-0.055 -0.045,-0.1 -0.1,-0.1 h -6.35 c -0.055,0 -0.1,0.045 -0.1,0.1 v 3.075 c 0,0.1 0.1,0 0,0 h -6.15 c -0.1,0 0,0.1 0,0 V 10.1 c 0,-0.055 -0.045,-0.1 -0.1,-0.1 h -6.35 c -0.055,0 -0.1,0.045 -0.1,0.1 v 3.075 c 0,0.1 0.1,0 0,0 h -6.15 c -0.1,0 0,0.1 0,0 V 10.1 c 0,-0.055 -0.045,-0.1 -0.1,-0.1 h -6.35 c -0.055,0 -0.1,0.045 -0.1,0.1 v 3.075 c 0,0.1 0.1,0 0,0 h -6.15 c -0.1,0 0,0.1 0,0 V 10.1 c 0,-0.055 -0.045,-0.1 -0.1,-0.1 h -6.35 c -0.055,0 -0.1,0.045 -0.1,0.1 v 3.075 c 0,0.1 0.1,0 0,0 h -6.15 c -0.1,0 0,0.1 0,0 V 10.1 c 0,-0.055 -0.045,-0.1 -0.1,-0.1 h -6.35 c -0.055,0 -0.1,0.045 -0.1,0.1 v 3.075 c 0,0.1 0.1,0 0,0 h -11.8 c -0.055,0 -0.1,0.045 -0.1,0.1 v 11.8 c 0,0.1 0.1,0 0,0 H 19.44 c -0.055,0 -0.1,0.045 -0.1,0.1 v 6.35 c 0,0.055 0.045,0.1 0.1,0.1 h 3.075 c 0.1,0 0,-0.1 0,0 v 6.15 c 0,0.1 0.1,0 0,0 H 19.44 c -0.055,0 -0.1,0.045 -0.1,0.1 v 6.35 c 0,0.055 0.045,0.1 0.1,0.1 h 3.075 c 0.1,0 0,-0.1 0,0 v 6.15 c 0,0.1 0.1,0 0,0 H 19.44 c -0.055,0 -0.1,0.045 -0.1,0.1 v 6.35 c 0,0.055 0.045,0.1 0.1,0.1 h 3.075 c 0.1,0 0,-0.1 0,0 v 6.15 c 0,0.1 0.1,0 0,0 H 19.44 c -0.055,0 -0.1,0.045 -0.1,0.1 v 6.35 c 0,0.055 0.045,0.1 0.1,0.1 h 3.075 c 0.1,0 0,-0.1 0,0 v 6.15 c 0,0.1 0.1,0 0,0 H 19.44 c -0.055,0 -0.1,0.045 -0.1,0.1 v 6.35 c 0,0.055 0.045,0.1 0.1,0.1 h 3.075 c 0.1,0 0,-0.1 0,0 v 6.15 c 0,0.1 0.1,0 0,0 H 19.44 c -0.055,0 -0.1,0.045 -0.1,0.1 v 6.35 c 0,0.055 0.045,0.1 0.1,0.1 h 3.075 c 0.1,0 0,-0.1 0,0 v 11.8 c 0,0.055 0.045,0.1 0.1,0.1 z"
       stroke="#000000"
       stroke-width="0.2"
       id="path710" />
  </g>
  <g
     fill="#000000"
     fill-opacity="1"
     stroke="#000000"
     stroke-opacity="1"
     stroke-width="5"
     stroke-linecap="round"
     stroke-linejoin="bevel"
     font-family="Arial"
     font-size="12px"
     font-weight="400"
     font-style="normal"
     id="g50"
     transform="matrix(2.3808024e-6,-0.08466667,0.08466667,2.3808024e-6,22.282211,378.86263)">
    <polyline
       fill="none"
       vector-effect="none"
       points="846.622,736.996 1081.97,736.996 "
       id="polyline20-9"
       transform="translate(2539.2039,-325.20053)" />
    <polyline
       fill="none"
       vector-effect="none"
       points="1081.97,568.246 1081.97,736.996 "
       id="polyline44-3"
       transform="translate(2538.9851,-327.39893)" />
    <polyline
       fill="none"
       vector-effect="none"
       points="846.622,568.246 1081.97,568.246 "
       id="polyline46-7"
       transform="translate(2534.4821,-326.13379)" />
    <polyline
       fill="none"
       vector-effect="none"
       points="846.622,568.246 846.622,736.996 "
       id="polyline48-0"
       transform="translate(2535.2617,-325.06933)" />
    <polyline
       fill="none"
       vector-effect="none"
       points="1231.82,568.246 1231.82,567.751 1231.8,567.256 1231.76,566.762 1231.72,566.268 1231.66,565.777 1231.58,565.287 1231.5,564.799 1231.4,564.313 1231.29,563.831 1231.16,563.352 1231.02,562.876 1230.87,562.404 1230.71,561.936 1230.53,561.473 1230.35,561.015 1230.15,560.561 1229.93,560.114 1229.71,559.672 1229.47,559.237 1229.22,558.808 1228.97,558.385 1228.7,557.97 1228.41,557.563 1228.12,557.163 1227.82,556.771 1227.51,556.387 1227.18,556.012 1226.85,555.645 1226.51,555.288 1226.15,554.94 1225.79,554.602 1225.42,554.273 1225.04,553.955 1224.65,553.647 1224.26,553.349 1223.85,553.062 1223.44,552.786 1223.02,552.522 1222.6,552.268 1222.16,552.026 1221.73,551.796 1221.28,551.578 1220.83,551.371 1220.38,551.177 1219.91,550.995 1219.45,550.826 1218.98,550.669 1218.5,550.525 1218.03,550.393 1217.55,550.275 1217.06,550.169 1216.58,550.077 1216.09,549.997 1215.6,549.931 1215.1,549.878 1214.61,549.838 1214.11,549.811 1213.62,549.798 1213.12,549.798 1212.63,549.811 1212.13,549.838 1211.64,549.878 1211.15,549.931 1210.66,549.997 1210.17,550.077 1209.68,550.169 1209.2,550.275 1208.72,550.393 1208.24,550.525 1207.76,550.669 1207.29,550.826 1206.83,550.995 1206.37,551.177 1205.91,551.371 1205.46,551.578 1205.02,551.796 1204.58,552.026 1204.15,552.268 1203.72,552.522 1203.3,552.786 1202.89,553.062 1202.49,553.349 1202.09,553.647 1201.7,553.955 1201.32,554.273 1200.95,554.602 1200.59,554.94 1200.24,555.288 1199.9,555.645 1199.56,556.012 1199.24,556.387 1198.92,556.771 1198.62,557.163 1198.33,557.563 1198.05,557.97 1197.78,558.385 1197.52,558.808 1197.27,559.237 1197.04,559.672 1196.81,560.114 1196.6,560.561 1196.4,561.015 1196.21,561.473 1196.03,561.936 1195.87,562.404 1195.72,562.876 1195.58,563.352 1195.46,563.831 1195.35,564.313 1195.25,564.799 1195.16,565.287 1195.09,565.777 1195.03,566.268 1194.98,566.762 1194.95,567.256 1194.93,567.751 1194.92,568.246 1194.93,568.742 1194.95,569.237 1194.98,569.731 1195.03,570.224 1195.09,570.716 1195.16,571.206 1195.25,571.694 1195.35,572.179 1195.46,572.662 1195.58,573.141 1195.72,573.617 1195.87,574.089 1196.03,574.557 1196.21,575.02 1196.4,575.478 1196.6,575.931 1196.81,576.379 1197.04,576.82 1197.27,577.256 1197.52,577.685 1197.78,578.107 1198.05,578.522 1198.33,578.93 1198.62,579.33 1198.92,579.722 1199.24,580.106 1199.56,580.481 1199.9,580.847 1200.24,581.205 1200.59,581.552 1200.95,581.891 1201.32,582.219 1201.7,582.538 1202.09,582.846 1202.49,583.143 1202.89,583.43 1203.3,583.706 1203.72,583.971 1204.15,584.224 1204.58,584.466 1205.02,584.697 1205.46,584.915 1205.91,585.121 1206.37,585.315 1206.83,585.497 1207.29,585.667 1207.76,585.824 1208.24,585.968 1208.72,586.099 1209.2,586.218 1209.68,586.323 1210.17,586.416 1210.66,586.495 1211.15,586.562 1211.64,586.615 1212.13,586.655 1212.63,586.681 1213.12,586.695 1213.62,586.695 1214.11,586.681 1214.61,586.655 1215.1,586.615 1215.6,586.562 1216.09,586.495 1216.58,586.416 1217.06,586.323 1217.55,586.218 1218.03,586.099 1218.5,585.968 1218.98,585.824 1219.45,585.667 1219.91,585.497 1220.38,585.315 1220.83,585.121 1221.28,584.915 1221.73,584.697 1222.16,584.466 1222.6,584.224 1223.02,583.971 1223.44,583.706 1223.85,583.43 1224.26,583.143 1224.65,582.846 1225.04,582.538 1225.42,582.219 1225.79,581.891 1226.15,581.552 1226.51,581.205 1226.85,580.847 1227.18,580.481 1227.51,580.106 1227.82,579.722 1228.12,579.33 1228.41,578.93 1228.7,578.522 1228.97,578.107 1229.22,577.685 1229.47,577.256 1229.71,576.82 1229.93,576.379 1230.15,575.931 1230.35,575.478 1230.53,575.02 1230.71,574.557 1230.87,574.089 1231.02,573.617 1231.16,573.141 1231.29,572.662 1231.4,572.179 1231.5,571.694 1231.58,571.206 1231.66,570.716 1231.72,570.224 1231.76,569.731 1231.8,569.237 1231.82,568.742 1231.82,568.246 "
       id="polyline28-2"
       transform="translate(2087.2844,-420.58179)"
       inkscape:transform-center-x="-576.23523"
       inkscape:transform-center-y="276.35783" />
    <polyline
       fill="none"
       vector-effect="none"
       points="1231.82,568.246 1231.82,567.751 1231.8,567.256 1231.76,566.762 1231.72,566.268 1231.66,565.777 1231.58,565.287 1231.5,564.799 1231.4,564.313 1231.29,563.831 1231.16,563.352 1231.02,562.876 1230.87,562.404 1230.71,561.936 1230.53,561.473 1230.35,561.015 1230.15,560.561 1229.93,560.114 1229.71,559.672 1229.47,559.237 1229.22,558.808 1228.97,558.385 1228.7,557.97 1228.41,557.563 1228.12,557.163 1227.82,556.771 1227.51,556.387 1227.18,556.012 1226.85,555.645 1226.51,555.288 1226.15,554.94 1225.79,554.602 1225.42,554.273 1225.04,553.955 1224.65,553.647 1224.26,553.349 1223.85,553.062 1223.44,552.786 1223.02,552.522 1222.6,552.268 1222.16,552.026 1221.73,551.796 1221.28,551.578 1220.83,551.371 1220.38,551.177 1219.91,550.995 1219.45,550.826 1218.98,550.669 1218.5,550.525 1218.03,550.393 1217.55,550.275 1217.06,550.169 1216.58,550.077 1216.09,549.997 1215.6,549.931 1215.1,549.878 1214.61,549.838 1214.11,549.811 1213.62,549.798 1213.12,549.798 1212.63,549.811 1212.13,549.838 1211.64,549.878 1211.15,549.931 1210.66,549.997 1210.17,550.077 1209.68,550.169 1209.2,550.275 1208.72,550.393 1208.24,550.525 1207.76,550.669 1207.29,550.826 1206.83,550.995 1206.37,551.177 1205.91,551.371 1205.46,551.578 1205.02,551.796 1204.58,552.026 1204.15,552.268 1203.72,552.522 1203.3,552.786 1202.89,553.062 1202.49,553.349 1202.09,553.647 1201.7,553.955 1201.32,554.273 1200.95,554.602 1200.59,554.94 1200.24,555.288 1199.9,555.645 1199.56,556.012 1199.24,556.387 1198.92,556.771 1198.62,557.163 1198.33,557.563 1198.05,557.97 1197.78,558.385 1197.52,558.808 1197.27,559.237 1197.04,559.672 1196.81,560.114 1196.6,560.561 1196.4,561.015 1196.21,561.473 1196.03,561.936 1195.87,562.404 1195.72,562.876 1195.58,563.352 1195.46,563.831 1195.35,564.313 1195.25,564.799 1195.16,565.287 1195.09,565.777 1195.03,566.268 1194.98,566.762 1194.95,567.256 1194.93,567.751 1194.92,568.246 1194.93,568.742 1194.95,569.237 1194.98,569.731 1195.03,570.224 1195.09,570.716 1195.16,571.206 1195.25,571.694 1195.35,572.179 1195.46,572.662 1195.58,573.141 1195.72,573.617 1195.87,574.089 1196.03,574.557 1196.21,575.02 1196.4,575.478 1196.6,575.931 1196.81,576.379 1197.04,576.82 1197.27,577.256 1197.52,577.685 1197.78,578.107 1198.05,578.522 1198.33,578.93 1198.62,579.33 1198.92,579.722 1199.24,580.106 1199.56,580.481 1199.9,580.847 1200.24,581.205 1200.59,581.552 1200.95,581.891 1201.32,582.219 1201.7,582.538 1202.09,582.846 1202.49,583.143 1202.89,583.43 1203.3,583.706 1203.72,583.971 1204.15,584.224 1204.58,584.466 1205.02,584.697 1205.46,584.915 1205.91,585.121 1206.37,585.315 1206.83,585.497 1207.29,585.667 1207.76,585.824 1208.24,585.968 1208.72,586.099 1209.2,586.218 1209.68,586.323 1210.17,586.416 1210.66,586.495 1211.15,586.562 1211.64,586.615 1212.13,586.655 1212.63,586.681 1213.12,586.695 1213.62,586.695 1214.11,586.681 1214.61,586.655 1215.1,586.615 1215.6,586.562 1216.09,586.495 1216.58,586.416 1217.06,586.323 1217.55,586.218 1218.03,586.099 1218.5,585.968 1218.98,585.824 1219.45,585.667 1219.91,585.497 1220.38,585.315 1220.83,585.121 1221.28,584.915 1221.73,584.697 1222.16,584.466 1222.6,584.224 1223.02,583.971 1223.44,583.706 1223.85,583.43 1224.26,583.143 1224.65,582.846 1225.04,582.538 1225.42,582.219 1225.79,581.891 1226.15,581.552 1226.51,581.205 1226.85,580.847 1227.18,580.481 1227.51,580.106 1227.82,579.722 1228.12,579.33 1228.41,578.93 1228.7,578.522 1228.97,578.107 1229.22,577.685 1229.47,577.256 1229.71,576.82 1229.93,576.379 1230.15,575.931 1230.35,575.478 1230.53,575.02 1230.71,574.557 1230.87,574.089 1231.02,573.617 1231.16,573.141 1231.29,572.662 1231.4,572.179 1231.5,571.694 1231.58,571.206 1231.66,570.716 1231.72,570.224 1231.76,569.731 1231.8,569.237 1231.82,568.742 1231.82,568.246 "
       id="polyline28-7"
       transform="translate(2802.5756,341.93446)"
       inkscape:transform-center-x="-505.67578"
       inkscape:transform-center-y="176.39862" />
  </g>
</svg>
